<svg width="45" height="52" xmlns="http://www.w3.org/2000/svg" preserveAspectRatio="xMidYMid meet" version="1.0">

 <g>
  <title>Layer 1</title>
  <g id="svg_1" fill="#000000" transform="translate(0.000000,52.000000) scale(0.100000,-0.100000)"/>
  <path id="svg_2" d="m5.08955,26.09217l0,0c0,-10.07103 7.96671,-18.23526 17.7941,-18.23526l0,0c4.71935,0 9.2454,1.92122 12.58234,5.341c3.33707,3.41979 5.21179,8.05803 5.21179,12.89426l0,0c0,10.07115 -7.96665,18.23533 -17.79413,18.23533l0,0c-9.82739,0 -17.7941,-8.16418 -17.7941,-18.23533l0,0zm28.73345,8.15755l0,0c3.91768,-5.51757 3.33532,-13.13607 -1.37298,-17.96104c-4.7083,-4.82501 -12.14248,-5.42181 -17.52642,-1.40695l18.8994,19.36799zm-21.87859,-16.31493c-3.9177,5.51754 -3.33536,13.13604 1.37291,17.96094c4.70826,4.82504 12.14244,5.42183 17.52638,1.40702l-18.89929,-19.36796l0,0z" stroke="#000" fill="#fff"/>
 </g>
</svg>