<svg id="Layer_1" data-name="Layer 1" xmlns="http://www.w3.org/2000/svg" viewBox="0 0 200 200"><defs><style>.cls-1{fill:#fecb00;}.cls-2{fill:#0f204b;}.cls-3{fill:#fff;}</style></defs><title>BOOKING REPORT</title><rect class="cls-1" x="8.23" y="7.61" width="184.34" height="184.34" rx="13.53"/><path class="cls-2" d="M102.76,99.24H106c.06,0,.19.07.26.07,1.62.12,3.3.25,4.93.44a15.13,15.13,0,0,1,4.15,1.09,3,3,0,0,1,1.82,1.91,18.92,18.92,0,0,1,.71,3.76c0,.19.06.25.26.32a1.57,1.57,0,0,1,1.23,1.46v3.06a1.55,1.55,0,0,1-.84,1.34c-.2.13-.26.19-.26.39,0,2.48.06,5,.06,7.52,0,1.66-.06,3.31-.06,4.91a.67.67,0,0,1-.59.76,4.17,4.17,0,0,1-.9.07h-.52v1.84a1.29,1.29,0,0,1-.52,1.15,2.09,2.09,0,0,1-2.34.26,1.5,1.5,0,0,1-1-1.72v-1.6H98.35v1.91a2.09,2.09,0,0,1-.26.9,2.21,2.21,0,0,1-2.34.63A1.52,1.52,0,0,1,94.59,128v-1.65H93.22c-.58,0-1-.45-1.1-1.22-.06-1-.13-1.84-.19-2.8-.07-3.12-.07-6.25-.07-9.37a.34.34,0,0,0-.26-.38,1.35,1.35,0,0,1-.78-1.28v-3.12A1.4,1.4,0,0,1,92,106.76c.2-.06.26-.12.26-.31.2-1.28.45-2.62.71-3.89a2.41,2.41,0,0,1,1.43-1.79,7.64,7.64,0,0,1,1.1-.44,24.22,24.22,0,0,1,5.65-1C101.66,99.31,102.18,99.31,102.76,99.24Zm-7.4,6.12v9.88h19.21v-9.88ZM112,102.11H97.83v2.1H112ZM98,120a2,2,0,1,0,0,4,2.06,2.06,0,0,0,2.07-2A2.11,2.11,0,0,0,98,120ZM112,124a2,2,0,1,0,0-4,2,2,0,1,0,0,4Z"/><path class="cls-2" d="M93.94,147.51c-12.29,0-24.65-.08-36.94,0-5,0-8-3.94-6.49-8.81,1.55-5.18,3.17-10.28,4.79-15.46,2.63-8.57,5.26-17.15,8-25.65,1.47-4.64,4.79-7.34,9.51-8.27A6.36,6.36,0,0,1,74,89.24h74.34c4.64,0,7.57,3.71,6.42,8.19-.93,3.4-2,6.8-3.1,10.13-3.24,10.58-6.56,21.09-9.81,31.68a12.31,12.31,0,0,1-11,8.27C118.51,147.43,106.23,147.51,93.94,147.51ZM54.3,135.61h85.31c.39,0,.62-.08.7-.54q5.79-18.9,11.74-37.79c.93-3.09-.62-5.41-3.94-5.41q-36.75.12-73.49,0a9.74,9.74,0,0,0-8.73,6.41c-3.24,10.74-6.64,21.41-10,32.15C55.38,132.21,54.84,133.91,54.3,135.61Zm84.92,2.78H54.45c-.23,0-.46-.08-.61,0a1.12,1.12,0,0,0-.47.39c-.15.15-.15.46-.23.61-1,3.09.54,5.34,3.94,5.34,24.5-.08,49,0,73.41,0a9,9,0,0,0,7.26-3.56A6.34,6.34,0,0,0,139.22,138.39Z"/><path class="cls-2" d="M74.55,46.05a5,5,0,0,0-4.33,4.32,6.46,6.46,0,0,0-.08,1.24v35a2.86,2.86,0,0,1-.08.85,1.24,1.24,0,0,1-1.23,1.08,1.34,1.34,0,0,1-1.39-1,3.07,3.07,0,0,1-.08-.85V51.84c-.46.16-.85.23-1.24.39A5,5,0,0,0,63,57.1V93.72c0,1.24-.46,1.86-1.31,1.86s-1.39-.62-1.39-1.86v-10a6.71,6.71,0,0,0-7.11,5.48A14.56,14.56,0,0,0,53,91v38.33a1.56,1.56,0,0,1-.78,1.62,1.38,1.38,0,0,1-2-1V90.71a9.48,9.48,0,0,1,7-9.35,18.06,18.06,0,0,1,3.09-.46V57A7.69,7.69,0,0,1,66,49.29a3.15,3.15,0,0,0,2.32-1.85,7.22,7.22,0,0,1,5.87-4.25.82.82,0,0,0,.77-.7,7.75,7.75,0,0,1,7.57-5.33H132a7.81,7.81,0,0,1,8,8V85.77A1.36,1.36,0,0,1,138.61,87a1.28,1.28,0,0,1-1.32-1.16V45.43a5.15,5.15,0,0,0-3.71-5.26,5.07,5.07,0,0,0-1.54-.23H82.5a5.11,5.11,0,0,0-5.25,5.41V85.22a4.29,4.29,0,0,1-.15.93,1.32,1.32,0,0,1-1.4.7,1.19,1.19,0,0,1-1.08-1.16,5.55,5.55,0,0,1,0-1.08V46.82A2.59,2.59,0,0,1,74.55,46.05Z"/><path class="cls-3" d="M107.23,58.64h10.51c1,0,1.55.54,1.55,1.39a1.28,1.28,0,0,1-1.16,1.32,4.87,4.87,0,0,1-1,0H96.49A1.37,1.37,0,0,1,95.18,60a1.41,1.41,0,0,1,1.31-1.39h1.16c3.17,0,6.41.07,9.58.07Z"/><path class="cls-3" d="M107.23,64.36h10.59a1.35,1.35,0,0,1,1.54,1.24,1.32,1.32,0,0,1-1.16,1.47H96.72a1.34,1.34,0,0,1-1.39-1.4,1.41,1.41,0,0,1,1.47-1.39c3.4.08,7,.16,10.43.08Z"/><path class="cls-3" d="M107.31,70.16H117.9a1.24,1.24,0,0,1,1.39,1.08,1.31,1.31,0,0,1-.78,1.54,2.16,2.16,0,0,1-.69.16h-21a1.39,1.39,0,0,1-1.55-1.39,1.42,1.42,0,0,1,1.55-1.39Z"/><path class="cls-3" d="M107.31,78.66H96.8A1.37,1.37,0,1,1,96.72,76h21.1a1.39,1.39,0,1,1,.15,2.78H114c-2.24-.07-4.48-.07-6.72-.07Z"/><path class="cls-3" d="M107.23,84.45H96.41a1.41,1.41,0,0,1-1.23-1.39,1.33,1.33,0,0,1,1.23-1.31h21.64a1.27,1.27,0,0,1,1.16,1.31,1.34,1.34,0,0,1-1.08,1.39,2.34,2.34,0,0,1-.78.08C114.11,84.45,110.63,84.45,107.23,84.45Z"/><path class="cls-2" d="M34.79,174.49v-9.8h4.78a4.56,4.56,0,0,1,2.78.7,2.19,2.19,0,0,1,.93,1.84,2.36,2.36,0,0,1-.37,1.34,2.53,2.53,0,0,1-1,.88,3.59,3.59,0,0,1-1.5.3l.26-.58a4.21,4.21,0,0,1,1.64.3,2.61,2.61,0,0,1,1.11.9,2.47,2.47,0,0,1,.4,1.44,2.29,2.29,0,0,1-1,2,5,5,0,0,1-2.93.71ZM37,172.78H39.7a2.45,2.45,0,0,0,1.33-.3,1,1,0,0,0,.46-.91,1,1,0,0,0-.46-.92,2.45,2.45,0,0,0-1.33-.29H36.87V168.7h2.42a2.32,2.32,0,0,0,1.27-.28,1,1,0,0,0,.44-.88,1,1,0,0,0-.44-.87,2.41,2.41,0,0,0-1.27-.28H37Z"/><path class="cls-2" d="M50.24,174.65a6,6,0,0,1-2.13-.37,5.22,5.22,0,0,1-1.7-1.07,4.79,4.79,0,0,1-1.13-1.61,5.3,5.3,0,0,1,0-4,4.85,4.85,0,0,1,1.13-1.6,5,5,0,0,1,1.7-1.06,5.68,5.68,0,0,1,2.13-.38,5.9,5.9,0,0,1,2.14.37,5.14,5.14,0,0,1,1.7,1.06,4.83,4.83,0,0,1,1.13,1.61,5.14,5.14,0,0,1,.39,2,5.19,5.19,0,0,1-.39,2,5,5,0,0,1-1.13,1.62,5.11,5.11,0,0,1-1.7,1.05A5.9,5.9,0,0,1,50.24,174.65Zm0-1.91a3,3,0,0,0,1.21-.24,3,3,0,0,0,1-.65,3.2,3.2,0,0,0,.65-1,3.59,3.59,0,0,0,0-2.53,3.2,3.2,0,0,0-.65-1,3,3,0,0,0-1-.65,3,3,0,0,0-1.21-.23,3.08,3.08,0,0,0-1.22.23,2.9,2.9,0,0,0-1,.65,3.17,3.17,0,0,0-.64,1,3.59,3.59,0,0,0,0,2.53,3.17,3.17,0,0,0,.64,1,2.9,2.9,0,0,0,1,.65A3.09,3.09,0,0,0,50.24,172.74Z"/><path class="cls-2" d="M62.06,174.65a5.88,5.88,0,0,1-2.13-.37,5.38,5.38,0,0,1-1.71-1.07,4.77,4.77,0,0,1-1.12-1.61,5.3,5.3,0,0,1,0-4,4.83,4.83,0,0,1,1.12-1.6,5.14,5.14,0,0,1,1.7-1.06,5.7,5.7,0,0,1,2.14-.38,5.88,5.88,0,0,1,2.13.37,5,5,0,0,1,1.7,1.06A4.56,4.56,0,0,1,67,167.56a5,5,0,0,1,.4,2,5,5,0,0,1-.4,2,4.69,4.69,0,0,1-1.13,1.62,5,5,0,0,1-1.7,1.05A5.88,5.88,0,0,1,62.06,174.65Zm0-1.91a3,3,0,0,0,1.21-.24,2.9,2.9,0,0,0,1-.65,3,3,0,0,0,.65-1,3.59,3.59,0,0,0,0-2.53,3,3,0,0,0-.65-1,2.9,2.9,0,0,0-1-.65,3,3,0,0,0-1.21-.23,3,3,0,0,0-1.22.23,2.81,2.81,0,0,0-1,.65,3.2,3.2,0,0,0-.65,1,3.59,3.59,0,0,0,0,2.53,3.2,3.2,0,0,0,.65,1,2.81,2.81,0,0,0,1,.65A3.05,3.05,0,0,0,62.06,172.74Z"/><path class="cls-2" d="M69.13,174.49v-9.8h2.25v9.8Zm2-2.24L71,169.63l4.69-4.94h2.52L74,169.24l-1.29,1.34Zm4.69,2.24-3.48-4.26,1.48-1.62,4.66,5.88Z"/><path class="cls-2" d="M79.49,174.49v-9.8h2.28v9.8Z"/><path class="cls-2" d="M84.08,174.49v-9.8H86l5.78,7.05h-.91v-7.05h2.24v9.8H91.19l-5.78-7.06h.91v7.06Z"/><path class="cls-2" d="M100.12,174.65a6,6,0,0,1-2.14-.37,4.88,4.88,0,0,1-1.69-1.05,5,5,0,0,1-1.12-1.61,5.21,5.21,0,0,1-.39-2,5.14,5.14,0,0,1,.39-2A4.83,4.83,0,0,1,96.3,166,5.18,5.18,0,0,1,98,164.89a6.54,6.54,0,0,1,4.5.06,4.66,4.66,0,0,1,1.76,1.26l-1.44,1.35a3.56,3.56,0,0,0-1.18-.85,3.48,3.48,0,0,0-1.39-.27,3.35,3.35,0,0,0-1.28.23,2.92,2.92,0,0,0-1,.65,3.07,3.07,0,0,0-.66,1,3.59,3.59,0,0,0,0,2.53,3,3,0,0,0,.66,1,3.16,3.16,0,0,0,1,.66,3.32,3.32,0,0,0,1.28.24,3.93,3.93,0,0,0,1.31-.23,4,4,0,0,0,1.24-.74l1.29,1.64a6,6,0,0,1-1.87.93A7.27,7.27,0,0,1,100.12,174.65Zm1.89-1.54v-3.68h2.08v4Z"/><path class="cls-2" d="M110.15,174.49v-9.8h4.24a5.61,5.61,0,0,1,2.27.42,3.52,3.52,0,0,1,1.47,5,3.33,3.33,0,0,1-1.47,1.21,5.79,5.79,0,0,1-2.27.41h-3l1-1v3.73Zm2.28-3.48-1-1.07h2.87a2.37,2.37,0,0,0,1.57-.45,1.76,1.76,0,0,0,0-2.52,2.43,2.43,0,0,0-1.57-.44h-2.87l1-1.07Zm4,3.48-2.46-3.56h2.43l2.47,3.56Z"/><path class="cls-2" d="M122.69,172.67H128v1.82h-7.59v-9.8h7.4v1.82h-5.15Zm-.17-4h4.72v1.78h-4.72Z"/><path class="cls-2" d="M129.83,174.49v-9.8h4.24a5.58,5.58,0,0,1,2.27.42,3.4,3.4,0,0,1,0,6.24,5.41,5.41,0,0,1-2.27.43h-3l1-1v3.73Zm2.28-3.48-1-1.07H134a2.39,2.39,0,0,0,1.57-.45,1.76,1.76,0,0,0,0-2.52,2.45,2.45,0,0,0-1.57-.44h-2.87l1-1.07Z"/><path class="cls-2" d="M144.83,174.65a5.88,5.88,0,0,1-2.13-.37,5.17,5.17,0,0,1-1.71-1.07,4.79,4.79,0,0,1-1.13-1.61,5.3,5.3,0,0,1,0-4A4.85,4.85,0,0,1,141,166a5,5,0,0,1,1.7-1.06,5.7,5.7,0,0,1,2.14-.38,5.88,5.88,0,0,1,2.13.37,5,5,0,0,1,1.7,1.06,4.7,4.7,0,0,1,1.13,1.61,5.14,5.14,0,0,1,.4,2,5.2,5.2,0,0,1-.4,2,4.83,4.83,0,0,1-1.13,1.62,5,5,0,0,1-1.7,1.05A5.88,5.88,0,0,1,144.83,174.65Zm0-1.91a3,3,0,0,0,1.21-.24,2.9,2.9,0,0,0,1-.65,3,3,0,0,0,.65-1,3.59,3.59,0,0,0,0-2.53,3,3,0,0,0-.65-1,2.9,2.9,0,0,0-1-.65,3.32,3.32,0,0,0-2.43,0,2.85,2.85,0,0,0-1,.65,3.17,3.17,0,0,0-.64,1,3.59,3.59,0,0,0,0,2.53,3.17,3.17,0,0,0,.64,1,2.85,2.85,0,0,0,1,.65A3.05,3.05,0,0,0,144.83,172.74Z"/><path class="cls-2" d="M151.9,174.49v-9.8h4.24a5.64,5.64,0,0,1,2.27.42,3.54,3.54,0,0,1,1.47,5,3.33,3.33,0,0,1-1.47,1.21,5.82,5.82,0,0,1-2.27.41h-3l1-1v3.73Zm2.28-3.48-1-1.07H156a2.39,2.39,0,0,0,1.57-.45,1.76,1.76,0,0,0,0-2.52,2.45,2.45,0,0,0-1.57-.44h-2.87l1-1.07Zm4,3.48-2.46-3.56h2.43l2.47,3.56Z"/><path class="cls-2" d="M164.08,174.49v-8h-3.14v-1.84h8.54v1.84h-3.14v8Z"/></svg>