<svg id="Layer_1" data-name="Layer 1" xmlns="http://www.w3.org/2000/svg" viewBox="0 0 200 200"><defs><style>.cls-1{fill:#fecb00;}.cls-2{fill:#0f204b;}.cls-3{fill:#dda507;}.cls-4{fill:#fff;}</style></defs><title>BUS SCHEDULE</title><rect class="cls-1" x="8.23" y="7.61" width="184.34" height="184.34" rx="13.53"/><path class="cls-2" d="M152,74.66a32.52,32.52,0,0,1-16.44,3.63V90.6H66.37V55h42.09a27.15,27.15,0,0,1-.43-4.13H75.25V43.3h33.46a31.13,31.13,0,0,1,3.74-9.56l-6.82-.55c-.23,0-.7-.23-.93-.23H93c-2.1.23-4,.23-5.84.46a87.4,87.4,0,0,0-20.33,3.45,28.74,28.74,0,0,0-4,1.61,8.62,8.62,0,0,0-5.15,6.43c-.93,4.59-1.87,9.41-2.57,14,0,.69-.23.92-.93,1.15a5,5,0,0,0-4.21,5V76.36A4.82,4.82,0,0,0,52.82,81a1.25,1.25,0,0,1,.93,1.37c0,11.26,0,22.51.24,33.76.23,3.44.46,6.66.7,10.1.23,2.76,1.87,4.37,4,4.37h4.91v6c0,3.44,1.17,5.28,4.2,6.2s6.78,0,8.42-2.3a7.49,7.49,0,0,0,.93-3.21v-6.89h50.72v5.74c-.24,3,.7,5.05,3.5,6.2a7.51,7.51,0,0,0,8.41-.92,4.67,4.67,0,0,0,1.87-4.13v-6.66h1.87a16.88,16.88,0,0,0,3.28-.23q2.1-.35,2.1-2.76c0-5.74.23-11.71.23-17.68,0-9-.23-18.14-.23-27.1,0-.69.23-.91.93-1.37a5.62,5.62,0,0,0,3-4.83V74.18C152.56,74.34,152.29,74.51,152,74.66Zm-76,47.4a7.12,7.12,0,1,1,0-14.24,7.58,7.58,0,0,1,7.48,7.12A7.42,7.42,0,0,1,76,122.06Zm50.25,0a7.13,7.13,0,1,1,0-14.24,7.12,7.12,0,1,1,0,14.24Z"/><circle class="cls-3" cx="136.86" cy="49.47" r="24.53"/><path class="cls-4" d="M162.51,47.51v3.82c0,.37-.18.55-.18.91a26.13,26.13,0,0,1-18,21.85c-1.82.55-3.64.73-5.46,1.1H135.2a12.46,12.46,0,0,0-2.55-.37C119,72.64,109.34,59.35,111.53,45.87c1.82-12.56,12.92-24,28.77-21.85,10.37,1.46,17.48,7.47,20.94,17.3A62.07,62.07,0,0,1,162.51,47.51Zm-4.19,1.82c.18-12.38-10.92-21.49-22-21.3A21.17,21.17,0,0,0,115,49.15a21.67,21.67,0,1,0,43.34.18Z"/><path class="cls-4" d="M138.29,40.59a32.51,32.51,0,0,1,0,4.19c-.36,2.18.73,3.46,2,4.55a3.38,3.38,0,0,0,1.27.36h8.92a2.22,2.22,0,0,1,2.37,2,2.14,2.14,0,0,1-1.46,2.55,3.56,3.56,0,0,1-1.45.18h-8.38a2.69,2.69,0,0,0-1.64.73A5.42,5.42,0,0,1,134.65,57a5.11,5.11,0,0,1-3.82-3.83,4.94,4.94,0,0,1,1.82-5.28,2.78,2.78,0,0,0,.73-1.45V34.58c0-1.27.36-2.37,1.82-2.73a2.3,2.3,0,0,1,3.09,2.37Z"/><path class="cls-2" d="M43.69,170.66v-9.8h4.79a4.56,4.56,0,0,1,2.78.7,2.19,2.19,0,0,1,.93,1.84,2.29,2.29,0,0,1-.38,1.34,2.44,2.44,0,0,1-1,.88,3.59,3.59,0,0,1-1.5.3l.26-.58a4.12,4.12,0,0,1,1.63.3,2.58,2.58,0,0,1,1.12.9,2.47,2.47,0,0,1,.4,1.44,2.29,2.29,0,0,1-1,2,5,5,0,0,1-2.93.71ZM46,169h2.66a2.45,2.45,0,0,0,1.33-.3,1,1,0,0,0,.46-.91,1,1,0,0,0-.46-.92,2.45,2.45,0,0,0-1.33-.29H45.78v-1.66H48.2a2.35,2.35,0,0,0,1.27-.28,1,1,0,0,0,.44-.88,1,1,0,0,0-.44-.87,2.44,2.44,0,0,0-1.27-.28H46Z"/><path class="cls-2" d="M58.76,170.82a4.07,4.07,0,0,1-4.44-4.49v-5.47H56.6v5.41a2.86,2.86,0,0,0,.58,2,2,2,0,0,0,1.59.63,2.06,2.06,0,0,0,1.61-.63,2.91,2.91,0,0,0,.58-2v-5.41h2.22v5.47A4.47,4.47,0,0,1,62,169.66,4.41,4.41,0,0,1,58.76,170.82Z"/><path class="cls-2" d="M68.67,170.82a8.06,8.06,0,0,1-2.26-.31,5.13,5.13,0,0,1-1.74-.82l.77-1.71a5.25,5.25,0,0,0,1.48.74,5.57,5.57,0,0,0,1.75.28,3.32,3.32,0,0,0,1.09-.14,1.26,1.26,0,0,0,.6-.37.76.76,0,0,0,.2-.54.72.72,0,0,0-.31-.62,2.61,2.61,0,0,0-.82-.38c-.34-.1-.71-.19-1.11-.28s-.8-.19-1.21-.32a5,5,0,0,1-1.12-.5,2.38,2.38,0,0,1-.81-.83,2.5,2.5,0,0,1-.3-1.28,2.82,2.82,0,0,1,.44-1.53,3.08,3.08,0,0,1,1.37-1.11,5.7,5.7,0,0,1,2.3-.41,7.51,7.51,0,0,1,1.83.22,5.33,5.33,0,0,1,1.57.65l-.71,1.7a5.5,5.5,0,0,0-1.36-.56,4.92,4.92,0,0,0-1.34-.19,3.49,3.49,0,0,0-1.08.14,1.37,1.37,0,0,0-.6.4,1,1,0,0,0-.18.56.77.77,0,0,0,.3.63,2.15,2.15,0,0,0,.82.37c.33.09.71.18,1.12.27s.81.2,1.21.33a5.35,5.35,0,0,1,1.11.5,2.26,2.26,0,0,1,1.13,2.08,2.7,2.7,0,0,1-.45,1.51A3.11,3.11,0,0,1,71,170.4,5.61,5.61,0,0,1,68.67,170.82Z"/><path class="cls-2" d="M81.56,170.82a8.11,8.11,0,0,1-2.26-.31,5.22,5.22,0,0,1-1.74-.82l.77-1.71a5.39,5.39,0,0,0,1.48.74,5.61,5.61,0,0,0,1.75.28,3.32,3.32,0,0,0,1.09-.14,1.25,1.25,0,0,0,.61-.37.79.79,0,0,0,.19-.54.74.74,0,0,0-.3-.62,2.72,2.72,0,0,0-.82-.38c-.34-.1-.71-.19-1.12-.28s-.8-.19-1.21-.32a5.16,5.16,0,0,1-1.12-.5,2.38,2.38,0,0,1-.81-.83,2.5,2.5,0,0,1-.3-1.28,2.74,2.74,0,0,1,.45-1.53,3,3,0,0,1,1.36-1.11,5.72,5.72,0,0,1,2.31-.41,7.49,7.49,0,0,1,1.82.22,5.4,5.4,0,0,1,1.58.65l-.72,1.7a5.44,5.44,0,0,0-1.35-.56,5,5,0,0,0-1.35-.19,3.49,3.49,0,0,0-1.08.14,1.34,1.34,0,0,0-.59.4.9.9,0,0,0-.19.56.75.75,0,0,0,.31.63,2,2,0,0,0,.81.37l1.12.27c.41.09.82.2,1.22.33a5.27,5.27,0,0,1,1.1.5,2.29,2.29,0,0,1,1.14,2.08,2.63,2.63,0,0,1-.46,1.51,3.11,3.11,0,0,1-1.38,1.1A5.55,5.55,0,0,1,81.56,170.82Z"/><path class="cls-2" d="M92,170.82a5.76,5.76,0,0,1-2.1-.37,4.83,4.83,0,0,1-2.8-2.66,5,5,0,0,1-.4-2,5,5,0,0,1,.4-2,4.54,4.54,0,0,1,1.12-1.61,5,5,0,0,1,1.69-1.06,5.81,5.81,0,0,1,2.11-.37,5.73,5.73,0,0,1,2.31.44A4.36,4.36,0,0,1,96,162.42l-1.47,1.35a3.4,3.4,0,0,0-1.11-.87,3.09,3.09,0,0,0-1.35-.29,3.21,3.21,0,0,0-1.26.23,2.84,2.84,0,0,0-1,.65,3,3,0,0,0-.65,1,3.65,3.65,0,0,0,0,2.55,3,3,0,0,0,.65,1,2.84,2.84,0,0,0,1,.65,3.22,3.22,0,0,0,1.26.24,3,3,0,0,0,1.35-.31,3.4,3.4,0,0,0,1.11-.87L96,169.07a4.5,4.5,0,0,1-1.73,1.31A6,6,0,0,1,92,170.82Z"/><path class="cls-2" d="M99.81,170.66H97.52v-9.8h2.29Zm4.6-4H99.62v-1.92h4.79Zm-.17-5.78h2.27v9.8h-2.27Z"/><path class="cls-2" d="M111.09,168.84h5.33v1.82h-7.58v-9.8h7.4v1.82h-5.15Zm-.17-4.05h4.72v1.78h-4.72Z"/><path class="cls-2" d="M118.23,170.66v-9.8h4.45a6.32,6.32,0,0,1,2.82.6,4.7,4.7,0,0,1,1.9,1.71,5.19,5.19,0,0,1,0,5.17,4.7,4.7,0,0,1-1.9,1.71,6.32,6.32,0,0,1-2.82.61Zm2.28-1.85h2.06a3.77,3.77,0,0,0,1.7-.37,2.69,2.69,0,0,0,1.12-1.07,3.48,3.48,0,0,0,0-3.24,2.67,2.67,0,0,0-1.12-1.06,3.77,3.77,0,0,0-1.7-.37h-2.06Z"/><path class="cls-2" d="M134.15,170.82a4.07,4.07,0,0,1-4.44-4.49v-5.47H132v5.41a2.86,2.86,0,0,0,.58,2,2,2,0,0,0,1.59.63,2.06,2.06,0,0,0,1.61-.63,2.91,2.91,0,0,0,.58-2v-5.41h2.22v5.47a4.47,4.47,0,0,1-1.17,3.33A4.41,4.41,0,0,1,134.15,170.82Z"/><path class="cls-2" d="M140.83,170.66v-9.8h2.28v7.95H148v1.85Z"/><path class="cls-2" d="M151.54,168.84h5.33v1.82h-7.59v-9.8h7.41v1.82h-5.15Zm-.17-4.05h4.72v1.78h-4.72Z"/></svg>