<svg id="Layer_1" data-name="Layer 1" xmlns="http://www.w3.org/2000/svg" viewBox="0 0 200 200"><defs><style>.cls-1{fill:#fecb00;}.cls-2{fill:#0f204b;}.cls-3{fill:#fff;stroke:#d30d0d;stroke-miterlimit:10;stroke-width:4px;}.cls-4{fill:#d30d0d;}</style></defs><title>BUS CANCEL</title><rect class="cls-1" x="8.23" y="7.61" width="184.34" height="184.34" rx="13.53"/><path class="cls-2" d="M141.72,115.32c-12.22-.17-21.46-9.24-23-20.87H61.86V58.5h69.86V71.16a21.88,21.88,0,0,1,10-2.35c2.49,0,5,.2,7.46.44v-.08a5.72,5.72,0,0,0-4.48-5.33c-.71-.24-.95-.47-.95-1.16A67.14,67.14,0,0,0,141.16,49a10.88,10.88,0,0,0-6.61-7,55.73,55.73,0,0,0-15.11-3.95c-5.9-.69-12-1.15-17.93-1.62-.24,0-.71-.23-1-.23H88.76c-2.12.23-4,.23-5.9.46a88.67,88.67,0,0,0-20.53,3.48,28.84,28.84,0,0,0-4,1.63,8.67,8.67,0,0,0-5.2,6.49c-.94,4.64-1.88,9.51-2.59,14.14,0,.7-.24.93-1,1.16a5,5,0,0,0-4.25,5.11V80.07a4.86,4.86,0,0,0,2.84,4.64,1.26,1.26,0,0,1,.94,1.39c0,11.36,0,22.72.24,34.09.23,3.48.47,6.72.71,10.2.23,2.78,1.88,4.41,4,4.41h5v6c0,3.47,1.18,5.33,4.25,6.26s6.85,0,8.5-2.32a7.5,7.5,0,0,0,.94-3.25v-7h51.22v5.79c-.24,3,.71,5.1,3.54,6.26a7.58,7.58,0,0,0,8.49-.92,4.73,4.73,0,0,0,1.89-4.18V134.8h1.89a17.18,17.18,0,0,0,3.31-.23c1.41-.24,2.12-1.16,2.12-2.79,0-5.29.19-10.78.22-16.29C144.17,115.4,143,115.34,141.72,115.32ZM70.82,46.67h51.69v7.66H70.82Zm.71,79.55a7.19,7.19,0,1,1,0-14.38A7.68,7.68,0,0,1,79.09,119,7.51,7.51,0,0,1,71.53,126.22Zm50.75,0a7.2,7.2,0,1,1,0-14.38,7.19,7.19,0,1,1,0,14.38Z"/><path class="cls-3" d="M142.65,111.42h0A19.37,19.37,0,0,1,123.22,92h0a19.37,19.37,0,0,1,19.43-19.43h0A19.38,19.38,0,0,1,162.08,92h0A19.49,19.49,0,0,1,142.65,111.42Z"/><path class="cls-4" d="M145.3,90.75l4.41,4.42.71.71a1.84,1.84,0,0,1,0,2.82,2,2,0,0,1-2.83-.17q-2.11-2.13-4.24-4.24a2.77,2.77,0,0,1-.53-.71c-.35.35-.53.35-.7.71q-2.13,2.11-4.24,4.24c-.89.88-2.12,1.06-2.83.17a2,2,0,0,1,.18-2.82q2.11-2.13,4.24-4.24l.7-.71c-1.06-.88-1.94-1.94-3-2.83l-1.94-1.94a1.89,1.89,0,1,1,2.65-2.65l4.41,4.42c.18.17.36.17.53.53l3.54-3.53a11.14,11.14,0,0,1,1.41-1.42,1.93,1.93,0,0,1,2.65,0,2.14,2.14,0,0,1,0,2.83c-1.41,1.41-2.83,2.82-4.24,4.24C146,90.4,145.65,90.58,145.3,90.75Z"/><path class="cls-2" d="M57.1,174.49v-9.8h4.79a4.58,4.58,0,0,1,2.78.7,2.19,2.19,0,0,1,.93,1.84,2.37,2.37,0,0,1-.38,1.34,2.5,2.5,0,0,1-1,.88,3.67,3.67,0,0,1-1.51.3l.27-.58a4.16,4.16,0,0,1,1.63.3,2.61,2.61,0,0,1,1.11.9,2.47,2.47,0,0,1,.41,1.44,2.27,2.27,0,0,1-1,2,5,5,0,0,1-2.92.71Zm2.25-1.71H62a2.45,2.45,0,0,0,1.33-.3,1,1,0,0,0,.46-.91,1,1,0,0,0-.46-.92,2.45,2.45,0,0,0-1.33-.29H59.18V168.7h2.43a2.31,2.31,0,0,0,1.26-.28,1,1,0,0,0,.44-.88,1,1,0,0,0-.44-.87,2.4,2.4,0,0,0-1.26-.28H59.35Z"/><path class="cls-2" d="M72.16,174.65a4.41,4.41,0,0,1-3.26-1.16,4.48,4.48,0,0,1-1.18-3.33v-5.47H70v5.41a2.91,2.91,0,0,0,.57,2,2.06,2.06,0,0,0,1.6.63,2.08,2.08,0,0,0,1.61-.63,2.91,2.91,0,0,0,.57-2v-5.41h2.23v5.47a4.48,4.48,0,0,1-1.18,3.33A4.4,4.4,0,0,1,72.16,174.65Z"/><path class="cls-2" d="M82.07,174.65a8.11,8.11,0,0,1-2.26-.31,5.22,5.22,0,0,1-1.74-.82l.77-1.71a5.69,5.69,0,0,0,1.48.74,5.61,5.61,0,0,0,1.75.28,3.32,3.32,0,0,0,1.09-.14,1.3,1.3,0,0,0,.61-.37.79.79,0,0,0,.19-.54.74.74,0,0,0-.3-.62,2.72,2.72,0,0,0-.82-.38c-.34-.1-.71-.19-1.12-.28s-.8-.19-1.21-.32a5.16,5.16,0,0,1-1.12-.5,2.38,2.38,0,0,1-.81-.83,2.5,2.5,0,0,1-.3-1.28,2.74,2.74,0,0,1,.45-1.53,3,3,0,0,1,1.36-1.11,5.72,5.72,0,0,1,2.31-.41,7.49,7.49,0,0,1,1.82.22,5.4,5.4,0,0,1,1.58.65l-.72,1.7a5.44,5.44,0,0,0-1.35-.56,5,5,0,0,0-1.35-.19,3.49,3.49,0,0,0-1.08.14,1.34,1.34,0,0,0-.59.4.9.9,0,0,0-.19.56.75.75,0,0,0,.31.63,2,2,0,0,0,.81.37l1.12.27c.41.09.82.2,1.22.33a5.27,5.27,0,0,1,1.1.5,2.29,2.29,0,0,1,1.14,2.08,2.63,2.63,0,0,1-.46,1.51,3.17,3.17,0,0,1-1.38,1.1A5.55,5.55,0,0,1,82.07,174.65Z"/><path class="cls-2" d="M96.42,174.65a5.8,5.8,0,0,1-2.1-.37,5,5,0,0,1-1.69-1.05,4.84,4.84,0,0,1-1.11-1.61,5,5,0,0,1-.4-2,5,5,0,0,1,.4-2A4.67,4.67,0,0,1,92.64,166a5,5,0,0,1,1.69-1.06,5.81,5.81,0,0,1,2.11-.37,5.73,5.73,0,0,1,2.31.44,4.36,4.36,0,0,1,1.73,1.29L99,167.6a3.18,3.18,0,0,0-1.11-.87,3,3,0,0,0-1.35-.29,3.21,3.21,0,0,0-1.26.23,2.92,2.92,0,0,0-1.64,1.64,3.51,3.51,0,0,0,0,2.55,2.92,2.92,0,0,0,1.64,1.64,3.22,3.22,0,0,0,1.26.24,2.91,2.91,0,0,0,1.35-.31,3.3,3.3,0,0,0,1.11-.87l1.47,1.34a4.5,4.5,0,0,1-1.73,1.31A6,6,0,0,1,96.42,174.65Z"/><path class="cls-2" d="M100.51,174.49l4.36-9.8h2.24l4.39,9.8h-2.38l-3.6-8.66h.91l-3.59,8.66Zm2.2-2.1.57-1.73h5.07l.59,1.73Z"/><path class="cls-2" d="M112.52,174.49v-9.8h1.88l5.78,7.05h-.91v-7.05h2.24v9.8h-1.87l-5.79-7.06h.91v7.06Z"/><path class="cls-2" d="M128.53,174.65a5.81,5.81,0,0,1-2.11-.37,5,5,0,0,1-1.69-1.05,5.15,5.15,0,0,1-1.11-1.61,5,5,0,0,1-.4-2,5,5,0,0,1,.4-2,4.81,4.81,0,0,1,1.12-1.61,5,5,0,0,1,1.69-1.06,5.81,5.81,0,0,1,2.11-.37,5.73,5.73,0,0,1,2.31.44,4.46,4.46,0,0,1,1.74,1.29l-1.47,1.35a3.3,3.3,0,0,0-1.12-.87,3,3,0,0,0-1.35-.29,3.21,3.21,0,0,0-1.26.23,2.92,2.92,0,0,0-1.64,1.64,3.65,3.65,0,0,0,0,2.55,2.92,2.92,0,0,0,1.64,1.64,3.22,3.22,0,0,0,1.26.24,2.91,2.91,0,0,0,1.35-.31,3.43,3.43,0,0,0,1.12-.87l1.47,1.34a4.61,4.61,0,0,1-1.74,1.31A5.92,5.92,0,0,1,128.53,174.65Z"/><path class="cls-2" d="M136.35,172.67h5.34v1.82H134.1v-9.8h7.4v1.82h-5.15Zm-.17-4h4.72v1.78h-4.72Z"/><path class="cls-2" d="M143.49,174.49v-9.8h2.28v7.95h4.89v1.85Z"/></svg>