<svg id="Layer_1" data-name="Layer 1" xmlns="http://www.w3.org/2000/svg" viewBox="0 0 200 200"><defs><style>.cls-1{fill:#fecb00;}.cls-2{fill:#0f204b;}.cls-3{fill:#fff;stroke:#d30d0d;stroke-miterlimit:10;stroke-width:4px;}.cls-4{fill:#d30d0d;}</style></defs><title>EXTRA SEAT BLOCK</title><rect class="cls-1" x="8.23" y="7.61" width="184.34" height="184.34" rx="13.53"/><path class="cls-2" d="M89.47,106.69A25.16,25.16,0,0,1,79.14,95.85q.44,6.69.86,13.37c.09,1.42.25,2.83.38,4.33h9.27c0-1.34.06-2.57,0-3.8C89.59,108.73,89.53,107.71,89.47,106.69Z"/><path class="cls-2" d="M84.72,66.47a12.46,12.46,0,0,0-7.08-4.26c-1.57-.33-3.2-.37-4.88-.55V57.48c1.49,0,2.87,0,4.25,0a4.14,4.14,0,0,0,4.25-4,44.92,44.92,0,0,0,0-5.19A8.42,8.42,0,0,0,73,40.28q-13.27-.14-26.55,0a8.49,8.49,0,0,0-8.27,8.28c0,1.54,0,3.07,0,4.6a4.19,4.19,0,0,0,4.31,4.32c1.37,0,2.75,0,4.17,0v4.1a41.52,41.52,0,0,0-5.91.9c-5.36,1.59-8.77,6.25-9.08,12.08Q30.88,88.78,30.14,103c-.18,3.49-.33,7-.5,10.57h9.27c.05-.37.12-.79.15-1.21.77-11.1,1.56-22.2,2.27-33.3.33-5.09,3.81-8.52,8.93-8.53,6.28,0,12.56,0,18.84,0a9.76,9.76,0,0,1,3.19.48,8.13,8.13,0,0,1,5.32,5.56A24.94,24.94,0,0,1,84.72,66.47ZM68.29,61.75h-17V57.58h17Z"/><path class="cls-2" d="M59.72,118c10.39,0,20.78.22,31.15-.09,5.5-.16,9.36,4.27,7,10.32a10.78,10.78,0,0,1-10.5,7q-27.68,0-55.33,0a12.79,12.79,0,0,1-4.33-.77,10.52,10.52,0,0,1-6.82-9.7A6.32,6.32,0,0,1,27.54,118Q43.64,118,59.72,118Z"/><path class="cls-2" d="M43.36,113.54c.16-2.77.29-5.47.47-8.17q.69-10.14,1.4-20.27c.14-2,.25-4,.43-6.07a4.28,4.28,0,0,1,4.43-4.26c6.38-.07,12.76-.06,19.14,0A4.35,4.35,0,0,1,73.76,79q1.09,17,2.16,33.9c0,.19,0,.38,0,.69Z"/><path class="cls-2" d="M113,106.35c-.12,2.39-.23,4.78-.35,7.22h9.28c0-.37.12-.79.15-1.21l1.14-16.43A26.07,26.07,0,0,1,113,106.35Z"/><path class="cls-2" d="M172.66,109.75c-.62-11.8-1.32-23.6-1.89-35.4a12.85,12.85,0,0,0-10.11-12.14c-1.57-.33-3.2-.37-4.88-.55V57.48c1.49,0,2.87,0,4.25,0a4.14,4.14,0,0,0,4.25-4,44.92,44.92,0,0,0,0-5.19A8.43,8.43,0,0,0,156,40.28q-13.28-.14-26.56,0a8.48,8.48,0,0,0-8.26,8.28c-.06,1.54,0,3.07,0,4.6a4.19,4.19,0,0,0,4.31,4.32c1.37,0,2.74,0,4.17,0v4.1a41.89,41.89,0,0,0-5.92.9,12.28,12.28,0,0,0-6.2,4.17,26.17,26.17,0,0,1,7,11.17,8.48,8.48,0,0,1,8.78-7.29c6.28,0,12.56,0,18.84,0a9.76,9.76,0,0,1,3.19.48c4.18,1.52,5.66,4.82,5.9,9,.54,9.73,1.19,19.44,1.81,29.17.09,1.42.25,2.83.38,4.33h9.27C172.67,112.21,172.72,111,172.66,109.75Zm-21.36-48h-17V57.58h17Z"/><path class="cls-2" d="M142.74,118c10.39,0,20.77.22,31.15-.09,5.5-.16,9.36,4.27,7,10.32a10.79,10.79,0,0,1-10.51,7q-27.66,0-55.32,0a12.89,12.89,0,0,1-4.34-.77,10.51,10.51,0,0,1-6.81-9.7,6.32,6.32,0,0,1,6.65-6.73Q126.64,118,142.74,118Z"/><path class="cls-2" d="M126.38,113.54c.16-2.77.29-5.47.47-8.17q.69-10.14,1.4-20.27c.14-2,.25-4,.42-6.07a4.3,4.3,0,0,1,4.44-4.26c6.38-.07,12.76-.06,19.14,0A4.35,4.35,0,0,1,156.78,79q1.09,17,2.16,33.9c0,.19,0,.38,0,.69Z"/><path class="cls-3" d="M101.09,105.7h0a20.84,20.84,0,0,1-20.9-20.9h0a20.83,20.83,0,0,1,20.9-20.89h0A20.83,20.83,0,0,1,122,84.8h0A21,21,0,0,1,101.09,105.7Z"/><path class="cls-4" d="M103.94,83.47l4.75,4.75.76.76a2,2,0,0,1,0,3,2.14,2.14,0,0,1-3-.19l-4.56-4.56a2.62,2.62,0,0,1-.57-.76c-.38.38-.57.38-.76.76L96,91.83c-.95,1-2.28,1.14-3,.19a2.14,2.14,0,0,1,.19-3l4.56-4.56.76-.76c-1.14-1-2.09-2.09-3.23-3l-2.09-2.09A2,2,0,1,1,96,75.68l4.75,4.75c.19.19.38.19.57.57l3.8-3.8a11.46,11.46,0,0,1,1.52-1.52,2.06,2.06,0,0,1,2.85,0,2.31,2.31,0,0,1,0,3l-4.56,4.56C104.7,83.09,104.32,83.28,103.94,83.47Z"/><path class="cls-2" d="M32,166.45h5.33v1.82H29.79v-9.8h7.4v1.82H32Zm-.17-4h4.72v1.77H31.87Z"/><path class="cls-2" d="M38,168.27l4.2-5.81v1.65l-4-5.64h2.56l2.79,3.92-1.1,0,2.78-3.95h2.45l-4,5.55v-1.63l4.24,5.88H45.26l-2.89-4.16h1l-2.84,4.16Z"/><path class="cls-2" d="M50.69,168.27v-8H47.55v-1.85h8.54v1.85H53v8Z"/><path class="cls-2" d="M57.31,168.27v-9.8h4.24a5.41,5.41,0,0,1,2.27.43,3.29,3.29,0,0,1,1.47,1.22,3.39,3.39,0,0,1,.52,1.89,3.36,3.36,0,0,1-.52,1.9,3.19,3.19,0,0,1-1.47,1.2,5.58,5.58,0,0,1-2.27.42h-3l1-1v3.72Zm2.28-3.47-1-1.08h2.87a2.34,2.34,0,0,0,1.56-.45,1.73,1.73,0,0,0,0-2.51,2.4,2.4,0,0,0-1.56-.44H58.56l1-1.08Zm4,3.47-2.46-3.55h2.44L66,168.27Z"/><path class="cls-2" d="M66.31,168.27l4.36-9.8h2.24l4.39,9.8H74.92l-3.6-8.65h.91l-3.59,8.65Zm2.2-2.1.57-1.72h5.07l.59,1.72Z"/><path class="cls-2" d="M85.52,168.44a8.07,8.07,0,0,1-2.26-.32,5.32,5.32,0,0,1-1.74-.81l.77-1.71a5.24,5.24,0,0,0,1.48.73,5.58,5.58,0,0,0,1.75.29,3.61,3.61,0,0,0,1.09-.14,1.34,1.34,0,0,0,.6-.37.84.84,0,0,0,.2-.54.72.72,0,0,0-.31-.62,2.41,2.41,0,0,0-.82-.38c-.34-.1-.71-.19-1.11-.28s-.8-.2-1.21-.32a5,5,0,0,1-1.12-.51,2.35,2.35,0,0,1-.81-.82,2.5,2.5,0,0,1-.3-1.28,2.85,2.85,0,0,1,.44-1.54,3.06,3.06,0,0,1,1.37-1.1,5.53,5.53,0,0,1,2.3-.42,7.52,7.52,0,0,1,1.83.23,5.32,5.32,0,0,1,1.57.64l-.71,1.71a6,6,0,0,0-1.36-.57,5.35,5.35,0,0,0-1.34-.19,3.18,3.18,0,0,0-1.08.15,1.29,1.29,0,0,0-.6.4.94.94,0,0,0-.18.56.77.77,0,0,0,.3.63,2.31,2.31,0,0,0,.82.37c.33.09.71.18,1.12.27a10.32,10.32,0,0,1,1.21.33,5.33,5.33,0,0,1,1.11.49,2.35,2.35,0,0,1,.82.81,2.39,2.39,0,0,1,.31,1.27,2.68,2.68,0,0,1-.45,1.51A3.12,3.12,0,0,1,87.83,168,5.61,5.61,0,0,1,85.52,168.44Z"/><path class="cls-2" d="M93.47,166.45h5.34v1.82H91.22v-9.8h7.4v1.82H93.47Zm-.17-4H98v1.77H93.3Z"/><path class="cls-2" d="M99.32,168.27l4.36-9.8h2.24l4.39,9.8h-2.38l-3.59-8.65h.91l-3.6,8.65Zm2.2-2.1.58-1.72h5.06l.59,1.72Z"/><path class="cls-2" d="M112.88,168.27v-8h-3.14v-1.85h8.54v1.85h-3.14v8Z"/><path class="cls-2" d="M123.46,168.27v-9.8h4.79a4.65,4.65,0,0,1,2.78.7A2.2,2.2,0,0,1,132,161a2.39,2.39,0,0,1-.38,1.34,2.48,2.48,0,0,1-1,.87,3.52,3.52,0,0,1-1.51.31l.27-.59a4,4,0,0,1,1.63.31,2.54,2.54,0,0,1,1.11.9,2.47,2.47,0,0,1,.41,1.44,2.25,2.25,0,0,1-1,2,4.94,4.94,0,0,1-2.92.71Zm2.25-1.71h2.66a2.43,2.43,0,0,0,1.33-.29,1.13,1.13,0,0,0,0-1.83,2.43,2.43,0,0,0-1.33-.3h-2.82v-1.65H128a2.3,2.3,0,0,0,1.26-.29,1.07,1.07,0,0,0,0-1.74,2.31,2.31,0,0,0-1.26-.28h-2.26Z"/><path class="cls-2" d="M134.17,168.27v-9.8h2.28v7.95h4.89v1.85Z"/><path class="cls-2" d="M147.2,168.44a5.87,5.87,0,0,1-2.12-.38,5,5,0,0,1-1.71-1.06,4.89,4.89,0,0,1-1.13-1.61,5,5,0,0,1-.4-2,4.92,4.92,0,0,1,.4-2,4.75,4.75,0,0,1,1.13-1.6,5.06,5.06,0,0,1,1.7-1.07,5.89,5.89,0,0,1,2.13-.38,6.12,6.12,0,0,1,2.14.37,5.14,5.14,0,0,1,1.7,1.06,5,5,0,0,1,1.13,1.61,5.33,5.33,0,0,1,0,4A5,5,0,0,1,151,167a5.14,5.14,0,0,1-1.7,1.06A5.9,5.9,0,0,1,147.2,168.44Zm0-1.92a3.14,3.14,0,0,0,1.21-.23,2.83,2.83,0,0,0,1-.66,3,3,0,0,0,.65-1,3.62,3.62,0,0,0,0-2.54,3.27,3.27,0,0,0-.65-1,3,3,0,0,0-2.19-.89,3.18,3.18,0,0,0-1.21.23,3,3,0,0,0-1,.66,3.45,3.45,0,0,0-.64,3.53,3,3,0,0,0,.64,1,2.74,2.74,0,0,0,1,.66A3.18,3.18,0,0,0,147.2,166.52Z"/><path class="cls-2" d="M159,168.44a5.8,5.8,0,0,1-2.1-.37,5,5,0,0,1-1.69-1.06,4.74,4.74,0,0,1-1.11-1.61,5.35,5.35,0,0,1,0-4.06,4.87,4.87,0,0,1,1.12-1.61,5,5,0,0,1,1.69-1.06,6,6,0,0,1,2.11-.37,5.91,5.91,0,0,1,2.31.44A4.48,4.48,0,0,1,163,160l-1.47,1.34a3.15,3.15,0,0,0-1.11-.86,3.07,3.07,0,0,0-1.35-.3,3.4,3.4,0,0,0-1.26.23,3,3,0,0,0-1,.65,3.11,3.11,0,0,0-.66,1,3.42,3.42,0,0,0-.23,1.27,3.51,3.51,0,0,0,.23,1.28,3.07,3.07,0,0,0,.66,1,2.89,2.89,0,0,0,1,.65,3.4,3.4,0,0,0,1.26.23,3.07,3.07,0,0,0,1.35-.3,3.3,3.3,0,0,0,1.11-.87l1.47,1.34a4.48,4.48,0,0,1-1.73,1.3A5.8,5.8,0,0,1,159,168.44Z"/><path class="cls-2" d="M164.54,168.27v-9.8h2.25v9.8Zm2-2.24-.11-2.62,4.69-4.94h2.52L169.44,163l-1.29,1.35Zm4.69,2.24L167.76,164l1.48-1.63,4.66,5.88Z"/></svg>