<?xml version="1.0" encoding="utf-8"?>
<!-- Generator: Adobe Illustrator 23.0.1, SVG Export Plug-In . SVG Version: 6.00 Build 0)  -->
<svg version="1.1" xmlns="http://www.w3.org/2000/svg" xmlns:xlink="http://www.w3.org/1999/xlink" x="0px" y="0px"
	 viewBox="0 0 1920 1080" style="enable-background:new 0 0 1920 1080;" xml:space="preserve">
<style type="text/css">
	.st0{fill:#0F204B;}
	.st1{fill:#FFFFFF;}
	.st2{fill:#FECB00;}
</style>
<g id="Layer_1">
	<g>
		<g>
			<path class="st0" d="M1456,364c25.4,0,46,20.6,46,46s-20.6,46-46,46s-46-20.6-46-46S1430.6,364,1456,364 M1456,359
				c-28.2,0-51,22.8-51,51s22.8,51,51,51s51-22.8,51-51S1484.2,359,1456,359L1456,359z"/>
		</g>
		<g>
			<path class="st0" d="M1439.4,436.5v-50.7h21.1c5.3,0,9.1,0.5,11.5,1.4s4.3,2.5,5.8,4.9c1.4,2.3,2.2,5,2.2,8
				c0,3.8-1.1,6.9-3.3,9.4c-2.2,2.5-5.5,4-9.8,4.7c2.2,1.3,3.9,2.7,5.4,4.3c1.4,1.5,3.3,4.3,5.7,8.2l6.1,9.9h-12l-7.2-11
				c-2.6-3.9-4.3-6.4-5.3-7.4c-0.9-1-2-1.7-3-2.1c-1.1-0.4-2.7-0.6-5-0.6h-2v21.2h-10.2V436.5z M1449.5,407.3h7.4
				c4.8,0,7.8-0.2,9-0.6s2.1-1.1,2.8-2.1c0.7-1,1-2.3,1-3.8c0-1.7-0.4-3.1-1.3-4.1s-2.1-1.7-3.8-2c-0.8-0.1-3.2-0.2-7.3-0.2h-7.8
				L1449.5,407.3L1449.5,407.3z"/>
		</g>
	</g>
</g>
<g id="Blue">
	<path class="st0" d="M1177,592H577c-39.8,0-72-32.2-72-72V369h672V592z"/>
</g>
<g id="OD_Bus">
	<g>
		<path class="st1" d="M655,473.4c0,9.9-1.6,19.1-4.7,27.6c-3.1,8.5-7.7,16-13.7,22.4c-6.1,6.7-13.2,11.8-21.1,15.3
			c-7.9,3.4-16.4,5.2-25.3,5.2c-9,0-17.3-1.7-25.1-5.2c-7.8-3.4-14.7-8.5-20.9-15.3c-5.8-6.4-10.3-13.9-13.5-22.4
			c-3.1-8.5-4.7-17.7-4.7-27.6s1.6-19.1,4.7-27.6c3.1-8.5,7.6-16,13.5-22.4c12.4-13.8,27.7-20.6,46-20.6c9,0,17.4,1.8,25.2,5.3
			c7.9,3.5,14.9,8.6,21.2,15.4c6,6.6,10.5,14.1,13.7,22.5C653.4,454.4,655,463.5,655,473.4z M620.7,472.7c0-6-0.8-11.4-2.5-16.4
			c-1.6-4.9-3.9-9.2-6.6-12.8c-2.8-3.6-6-6.4-9.6-8.4c-3.7-2-7.6-3-11.8-3s-8.1,1-11.7,2.9c-3.6,1.9-6.7,4.7-9.4,8.3
			c-2.7,3.6-4.8,7.9-6.4,12.9c-1.6,5-2.4,10.5-2.4,16.5c0,6.1,0.7,11.7,2.2,16.8c1.5,5.1,3.6,9.4,6.3,13s5.8,6.4,9.4,8.4
			c3.6,2,7.5,3,11.9,3c4.2,0,8.1-1,11.9-3c3.7-2,7-4.8,9.8-8.4s4.9-7.9,6.5-13C619.9,484.4,620.7,478.8,620.7,472.7z"/>
		<path class="st1" d="M766.1,423.5c12.6,11.7,19,28.2,19,49.2c0,10.3-1.6,19.7-4.9,28c-3.3,8.4-8,15.5-14,21.4
			c-6.1,5.9-13.3,10.5-21.9,13.7c-8.5,3.2-18.1,4.8-28.7,4.8h-36.3V405.9h33.6C735.7,405.9,753.5,411.7,766.1,423.5z M741.4,502.4
			c6.5-6.8,9.8-16.5,9.8-29c0-12.9-3.2-22.7-9.5-29.4c-6.4-6.7-15.4-10.1-27.3-10.1h-2.5v78.7h2.5
			C725.9,512.6,734.9,509.2,741.4,502.4z"/>
		<path class="st1" d="M903.5,499c0,6.3-1.2,12-3.7,17.2s-6.1,9.6-10.8,13.2c-4.7,3.7-10.4,6.5-17.2,8.4c-6.7,1.9-14.4,2.9-22.9,2.9
			h-40.6V405.9h39.3c16,0,28.4,3.4,37.1,10.3c8.7,6.9,13.1,15.9,13.1,27.1c0,12.9-6.9,21.9-20.6,27.1v0.4
			C894.8,474.8,903.5,484.1,903.5,499z M860.9,457.2c3.3-2.5,4.9-6,4.9-10.3c0-3.9-1.6-7-4.8-9.4s-7.7-3.6-13.3-3.6H840V461h7.4
			C853.1,461,857.6,459.8,860.9,457.2z M869.4,497.8c0-5.5-1.6-9.4-4.8-11.6s-8.3-3.3-15.4-3.3H840v29.6h9
			C862.6,512.6,869.4,507.7,869.4,497.8z"/>
		<path class="st1" d="M1027.7,509.5c-2.5,7.3-6,13.5-10.7,18.6c-4.6,5.1-10.3,9-16.9,11.7c-6.7,2.7-14.1,4-22.3,4
			c-16.8,0-29.8-5.2-39.3-15.6c-9.4-10.4-14.1-25-14.1-43.9v-78.5h32.7v79c0,20.6,7,31,21.1,31c7.2,0,12.4-2.5,15.6-7.6
			c3.2-5.1,4.8-12.9,4.8-23.3v-79h32.8v78.7C1031.4,493.9,1030.1,502.2,1027.7,509.5z"/>
		<path class="st1" d="M1140.8,502.8c0,6.1-1.1,11.7-3.4,16.7c-2.2,5-5.5,9.3-9.6,12.9c-4.2,3.6-9.2,6.4-15.1,8.4s-12.5,3-19.9,3
			c-10,0-18.7-2.1-26-6.4c-7.3-4.3-12.6-10.1-15.7-17.6l21.1-19.1c6.9,10.3,14.3,15.5,22.2,15.5c4.5,0,8-1.1,10.5-3.4
			c2.5-2.2,3.8-5.3,3.8-9.2c0-2.1-0.4-3.8-1.1-5c-0.7-1.3-1.7-2.4-3-3.3s-2.8-1.7-4.6-2.4c-1.8-0.7-3.7-1.5-5.8-2.4l-8.9-3.6
			c-10.1-3.9-17.8-9.6-23.2-17.2c-5.3-7.5-8-16.3-8-26.1c0-5.8,1.1-11.2,3.3-16c2.2-4.9,5.3-9.1,9.3-12.7s8.8-6.4,14.4-8.3
			s11.8-2.9,18.6-2.9c8.7,0,16.2,1.3,22.5,3.8c6.4,2.5,11.5,5,15.4,7.4l-10.5,29.2c-10.6-7-19.7-10.5-27.4-10.5c-10,0-15,3.3-15,9.9
			c0,3,1.1,5.3,3.4,6.8c2.2,1.6,5.5,3.2,9.8,4.8l9.2,3.4C1129.6,466.8,1140.8,481.5,1140.8,502.8z"/>
	</g>
</g>
<g id="Yellow">
	<path class="st2" d="M1388,592h-199V369h127c39.8,0,72,32.2,72,72V592z"/>
</g>
<g id="Layer_4">
	<g>
		<path class="st0" d="M1209.9,468.9c-0.9,29-0.2,59.3,1.1,74.4c0,11.6,7.8,9.7,7.8,9.7h7.3v16.1c0,3,2.4,5.4,5.4,5.4h12.1
			c3,0,5.4-2.4,5.4-5.4V553h85.2v16.1c0,3,2.4,5.4,5.4,5.4h12c3,0,5.4-2.4,5.4-5.4V553h2.4c0,0,9.2,1.3,9.8-4.2
			c0-15,0.9-48.3,0.2-79.8l-2.1-36.9c-1.5-15.1-4-26.8-7.9-31.4c-16-18.9-128.1-20.3-140.8,0c-3.1,5-5.3,16.7-6.8,31.4L1209.9,468.9
			z M1246.2,397.4h86.1v13h-86.1V397.4z M1236.4,530.2c-6.8,0-12.2-5.5-12.2-12.2c0-6.8,5.5-12.2,12.2-12.2s12.2,5.5,12.2,12.2
			C1248.7,524.7,1243.2,530.2,1236.4,530.2z M1345.8,530.2c-6.8,0-12.2-5.5-12.2-12.2c0-6.8,5.5-12.2,12.2-12.2s12.2,5.5,12.2,12.2
			S1352.6,530.2,1345.8,530.2z M1347.4,484.6h-116.2v-61h116.2V484.6z"/>
	</g>
</g>
<g id="Your_journey_partner_1_">
	<g id="Your_journey_partner">
		<path class="st0" d="M533.4,638.6l12.9-18c3.3-4.7,5-7.7,5-9c0-0.7-0.4-1.3-1.1-1.8c-0.7-0.5-2.8-0.8-6.1-1l0.5-1.8h21.3l-0.4,1.8
			c-2.1,0.3-3.5,0.5-4.2,0.8c-1.2,0.5-2.4,1.3-3.5,2.3c-1.6,1.4-3.8,4.1-6.8,8.2L534.3,643l-5,16.7c-1.2,4.2-1.8,7.1-1.8,8.7
			c0,1,0.2,1.8,0.6,2.3c0.4,0.5,1.1,1,2,1.3c1.3,0.4,3.2,0.6,5.8,0.6l-0.5,1.8h-28.5l0.6-1.8c2.8-0.1,4.7-0.3,5.6-0.7
			c1.5-0.6,2.6-1.4,3.3-2.4c1.1-1.5,2.3-4.3,3.5-8.2l5.9-19.8l-7.2-23.4c-1.3-4.1-2.5-6.7-3.6-7.7s-3-1.6-5.7-1.8l0.5-1.8h25
			l-0.6,1.8c-3.1,0.2-4.9,0.4-5.3,0.6c-0.7,0.2-1.3,0.7-1.8,1.4s-0.7,1.5-0.7,2.4c0,1.4,0.5,3.7,1.4,7L533.4,638.6z"/>
		<path class="st0" d="M592.4,645c0,5-1.3,9.9-4,14.8c-2.6,4.9-6.3,8.8-11.1,11.6c-4.7,2.9-9.3,4.3-13.8,4.3
			c-4.6,0-8.3-1.5-11.2-4.4s-4.3-6.7-4.3-11.3c0-4.9,1.4-9.8,4.2-14.7s6.6-8.8,11.3-11.7s9.3-4.3,13.6-4.3c4.4,0,8,1.4,10.9,4.3
			C591,636.6,592.4,640.4,592.4,645z M584.1,641.6c0-3.1-0.8-5.5-2.3-7.1s-3.5-2.5-5.9-2.5c-4.9,0-9.4,3.5-13.5,10.5
			s-6.2,14-6.2,20.9c0,3.2,0.8,5.6,2.4,7.3c1.6,1.7,3.6,2.6,6,2.6c4.7,0,9.1-3.5,13.2-10.5C582.1,655.8,584.1,648.8,584.1,641.6z"/>
		<path class="st0" d="M644.3,630.6l-8.7,29.7c-1.3,4.4-1.9,7.2-1.9,8.4c0,0.6,0.1,1,0.3,1.3s0.5,0.4,0.9,0.4c0.6,0,1.2-0.3,1.9-0.8
			s2.4-2.6,5.2-6.2l1.5,1.1c-2.6,4.2-5.3,7.2-8.1,9.2c-1.8,1.3-3.6,1.9-5.3,1.9c-1.3,0-2.3-0.4-3-1.1c-0.7-0.7-1.1-1.7-1.1-2.8
			s0.2-2.6,0.6-4.5c0.5-2.5,2-7.8,4.5-16.1c-5.7,9.3-10.4,15.7-14.2,19.2s-7.3,5.3-10.6,5.3c-1.5,0-2.8-0.5-3.9-1.6
			c-1.1-1.1-1.6-2.4-1.6-4c0-2.5,0.7-6.3,2.2-11.5l4.3-15.4c1.1-3.7,1.6-6,1.6-6.9c0-0.4-0.1-0.7-0.4-1c-0.3-0.3-0.6-0.4-0.9-0.4
			c-0.7,0-1.4,0.2-2.1,0.7c-0.7,0.5-2.3,2.3-4.7,5.5l-1.5-1.1c2.5-3.9,5.1-6.7,7.9-8.5c2.1-1.4,4.1-2.1,5.9-2.1c1.2,0,2.2,0.4,3,1.2
			s1.2,1.8,1.2,3c0,1.8-0.7,5-2,9.6l-4.7,16.1c-1.3,4.4-1.9,7.2-1.9,8.3c0,0.6,0.2,1.1,0.6,1.5c0.4,0.4,1,0.6,1.7,0.6
			c1.1,0,2.5-0.5,4.3-1.6s4.1-3.5,7.1-7.3c2.9-3.8,5.4-7.3,7.3-10.6c1.9-3.3,4-8.6,6.1-15.8l1.1-3.8L644.3,630.6L644.3,630.6z"/>
		<path class="st0" d="M652.7,632.2l17.2-2.8l-7.2,24.3c5.8-9.9,11.1-16.9,15.9-20.9c2.7-2.3,4.9-3.4,6.6-3.4c1.1,0,2,0.3,2.6,1
			c0.6,0.6,0.9,1.6,0.9,2.8c0,2.2-0.6,4.3-1.7,6.3c-0.8,1.5-1.9,2.2-3.4,2.2c-0.8,0-1.4-0.2-2-0.7c-0.5-0.5-0.9-1.3-1-2.3
			c-0.1-0.6-0.2-1-0.4-1.2c-0.3-0.3-0.6-0.4-0.9-0.4c-0.6,0-1.1,0.1-1.6,0.4c-0.9,0.5-2.2,1.8-3.9,3.9c-2.8,3.3-5.8,7.5-9,12.7
			c-1.4,2.2-2.6,4.7-3.6,7.4c-1.4,3.8-2.2,6.1-2.4,6.8l-1.6,6.3h-7.6l9.2-31c1.1-3.6,1.6-6.2,1.6-7.7c0-0.6-0.2-1.1-0.7-1.5
			c-0.7-0.5-1.5-0.8-2.6-0.8c-0.7,0-2,0.1-3.8,0.4L652.7,632.2z"/>
		<path class="st0" d="M741.9,606.9h26.7l-0.5,1.8c-3.4,0-5.8,0.7-7.2,1.9s-2.9,4.5-4.4,9.8l-8.6,29.8c-1.6,5.6-3.3,9.9-4.9,12.9
			c-2.2,4-5.2,7.2-9,9.5c-3.8,2.4-8,3.5-12.7,3.5c-3.9,0-6.8-0.9-8.9-2.7c-2.1-1.8-3.1-3.9-3.1-6.5c0-2,0.6-3.7,1.9-5
			c1.2-1.3,2.7-2,4.5-2c1.5,0,2.7,0.4,3.7,1.3s1.4,2,1.4,3.3c0,1.1-0.4,2.1-1.3,3.1c-1.1,1.3-1.6,2.1-1.6,2.6c0,0.7,0.3,1.3,0.9,1.9
			c0.6,0.6,1.5,0.8,2.5,0.8c1.5,0,3.1-0.4,4.8-1.1c1.6-0.7,3.2-1.8,4.6-3.3c1.4-1.5,2.7-3.3,3.8-5.4c1.1-2.1,2.2-5,3.3-8.6l2.4-8.6
			l7.4-25.7c1.1-3.8,1.6-6.1,1.6-7c0-1.3-0.5-2.3-1.5-3.1s-3.1-1.3-6.3-1.5L741.9,606.9z"/>
		<path class="st0" d="M805.3,645c0,5-1.3,9.9-4,14.8c-2.6,4.9-6.3,8.8-11.1,11.6c-4.7,2.9-9.3,4.3-13.8,4.3
			c-4.6,0-8.3-1.5-11.2-4.4s-4.3-6.7-4.3-11.3c0-4.9,1.4-9.8,4.2-14.7s6.6-8.8,11.3-11.7s9.3-4.3,13.6-4.3c4.4,0,8,1.4,10.9,4.3
			C803.9,636.6,805.3,640.4,805.3,645z M797,641.6c0-3.1-0.8-5.5-2.3-7.1s-3.5-2.5-5.9-2.5c-4.9,0-9.4,3.5-13.5,10.5
			s-6.2,14-6.2,20.9c0,3.2,0.8,5.6,2.4,7.3c1.6,1.7,3.6,2.6,6,2.6c4.7,0,9.1-3.5,13.2-10.5C795,655.8,797,648.8,797,641.6z"/>
		<path class="st0" d="M857.3,630.6l-8.7,29.7c-1.3,4.4-1.9,7.2-1.9,8.4c0,0.6,0.1,1,0.3,1.3s0.5,0.4,0.9,0.4c0.6,0,1.2-0.3,1.9-0.8
			s2.4-2.6,5.2-6.2l1.5,1.1c-2.6,4.2-5.3,7.2-8.1,9.2c-1.8,1.3-3.6,1.9-5.3,1.9c-1.3,0-2.3-0.4-3-1.1c-0.7-0.7-1.1-1.7-1.1-2.8
			s0.2-2.6,0.6-4.5c0.5-2.5,2-7.8,4.5-16.1c-5.7,9.3-10.4,15.7-14.2,19.2s-7.3,5.3-10.6,5.3c-1.5,0-2.8-0.5-3.9-1.6
			c-1.1-1.1-1.6-2.4-1.6-4c0-2.5,0.7-6.3,2.2-11.5l4.3-15.4c1.1-3.7,1.6-6,1.6-6.9c0-0.4-0.1-0.7-0.4-1c-0.3-0.3-0.6-0.4-0.9-0.4
			c-0.7,0-1.4,0.2-2.1,0.7c-0.7,0.5-2.3,2.3-4.7,5.5l-1.5-1.1c2.5-3.9,5.1-6.7,7.9-8.5c2.1-1.4,4.1-2.1,5.9-2.1c1.2,0,2.2,0.4,3,1.2
			s1.2,1.8,1.2,3c0,1.8-0.7,5-2,9.6l-4.7,16.1c-1.3,4.4-1.9,7.2-1.9,8.3c0,0.6,0.2,1.1,0.6,1.5c0.4,0.4,1,0.6,1.7,0.6
			c1.1,0,2.5-0.5,4.3-1.6s4.1-3.5,7.1-7.3c2.9-3.8,5.4-7.3,7.3-10.6c1.9-3.3,4-8.6,6.1-15.8l1.1-3.8L857.3,630.6L857.3,630.6z"/>
		<path class="st0" d="M865.6,632.2l17.2-2.8l-7.2,24.3c5.8-9.9,11.1-16.9,15.9-20.9c2.7-2.3,4.9-3.4,6.6-3.4c1.1,0,2,0.3,2.6,1
			c0.6,0.6,0.9,1.6,0.9,2.8c0,2.2-0.6,4.3-1.7,6.3c-0.8,1.5-1.9,2.2-3.4,2.2c-0.8,0-1.4-0.2-2-0.7c-0.5-0.5-0.9-1.3-1-2.3
			c-0.1-0.6-0.2-1-0.4-1.2c-0.3-0.3-0.6-0.4-0.9-0.4c-0.6,0-1.1,0.1-1.6,0.4c-0.9,0.5-2.2,1.8-3.9,3.9c-2.8,3.3-5.8,7.5-9,12.7
			c-1.4,2.2-2.6,4.7-3.6,7.4c-1.4,3.8-2.2,6.1-2.4,6.8l-1.6,6.3h-7.6l9.2-31c1.1-3.6,1.6-6.2,1.6-7.7c0-0.6-0.2-1.1-0.7-1.5
			c-0.7-0.5-1.5-0.8-2.6-0.8c-0.7,0-2,0.1-3.8,0.4L865.6,632.2z"/>
		<path class="st0" d="M922.6,629.4l-6.6,22.7c6.2-9.3,11-15.4,14.3-18.3c3.3-2.9,6.5-4.4,9.6-4.4c1.7,0,3,0.5,4.1,1.6
			s1.6,2.5,1.6,4.3c0,2-0.5,4.7-1.4,8l-6.1,21c-0.7,2.4-1,3.9-1,4.4s0.1,0.9,0.4,1.2c0.3,0.3,0.5,0.5,0.8,0.5c0.4,0,0.9-0.2,1.4-0.6
			c1.8-1.4,3.7-3.5,5.8-6.4l1.5,0.9c-3.1,4.4-6,7.6-8.8,9.5c-1.9,1.3-3.7,1.9-5.2,1.9c-1.2,0-2.2-0.4-2.9-1.1
			c-0.7-0.7-1.1-1.8-1.1-3c0-1.6,0.6-4.3,1.7-8.2l5.8-20.1c0.7-2.5,1.1-4.4,1.1-5.8c0-0.7-0.2-1.2-0.6-1.6c-0.4-0.4-1-0.6-1.6-0.6
			c-0.9,0-2,0.4-3.3,1.2c-2.5,1.5-5,4-7.7,7.4s-5.5,7.8-8.4,13.2c-1.6,2.8-2.9,5.9-3.9,9.3l-2.5,8.2H902l9.1-31.2
			c1.1-3.8,1.6-6,1.6-6.8c0-0.7-0.3-1.4-0.9-1.9c-0.6-0.5-1.3-0.8-2.2-0.8c-0.4,0-1.1,0.1-2.1,0.2l-1.9,0.3l-0.3-1.8L922.6,629.4z"
			/>
		<path class="st0" d="M963.3,655.7c-0.2,1.7-0.3,3-0.3,4.1c0,3,1,5.5,3.1,7.6s4.6,3.1,7.6,3.1c2.4,0,4.7-0.5,6.9-1.5
			s5.5-3.2,9.9-6.5l1,1.4c-7.9,7.8-15.4,11.7-22.6,11.7c-4.9,0-8.5-1.5-11-4.6s-3.7-6.4-3.7-10.1c0-5,1.5-10,4.6-15.2
			s6.9-9.2,11.5-12.1c4.6-2.9,9.4-4.3,14.3-4.3c3.5,0,6.1,0.7,7.8,2.1c1.7,1.4,2.5,3.1,2.5,5.1c0,2.8-1.1,5.4-3.3,7.9
			c-2.9,3.3-7.2,6-12.8,8C975.3,653.9,970.1,655,963.3,655.7z M963.7,653.3c4.9-0.6,8.9-1.5,12-2.9c4.1-1.8,7.2-4,9.2-6.6
			c2-2.5,3.1-5,3.1-7.3c0-1.4-0.4-2.5-1.3-3.4c-0.9-0.9-2.1-1.3-3.8-1.3c-3.4,0-7,1.8-10.8,5.4C968.3,640.9,965.5,646.2,963.7,653.3
			z"/>
		<path class="st0" d="M1012.8,629.4c1.1,1.9,1.9,3.7,2.3,5.4c0.4,1.7,0.9,5,1.3,9.9l2.2,24.6c2-2.4,4.9-6.2,8.7-11.4
			c1.8-2.5,4.1-6,6.8-10.3c1.6-2.7,2.6-4.5,3-5.6c0.2-0.5,0.3-1.1,0.3-1.6c0-0.4-0.1-0.7-0.3-0.9c-0.2-0.2-0.8-0.5-1.8-0.8
			s-1.8-0.9-2.4-1.7s-1-1.8-1-2.9c0-1.4,0.4-2.5,1.2-3.3c0.8-0.8,1.8-1.2,3-1.2c1.5,0,2.7,0.6,3.7,1.8s1.5,2.9,1.5,5
			c0,2.6-0.9,5.6-2.7,9c-1.8,3.4-5.3,8.6-10.4,15.5s-11.3,14.6-18.6,22.9c-5,5.7-8.8,9.3-11.2,10.8s-4.5,2.2-6.2,2.2
			c-1,0-1.9-0.4-2.7-1.2s-1.2-1.7-1.2-2.7c0-1.3,0.5-2.5,1.6-3.5c1.1-1.1,2.3-1.6,3.5-1.6c0.7,0,1.2,0.1,1.6,0.4
			c0.3,0.2,0.6,0.6,0.9,1.4c0.3,0.8,0.6,1.3,0.9,1.6c0.2,0.2,0.4,0.2,0.6,0.2c0.2,0,0.5-0.2,1-0.5c1.8-1.1,4-2.9,6.4-5.4
			c3.2-3.3,5.6-5.9,7.1-8l-2.8-31.6c-0.5-5.2-1.2-8.4-2.1-9.5s-2.5-1.7-4.7-1.7c-0.7,0-1.9,0.1-3.7,0.3l-0.4-1.8L1012.8,629.4z"/>
		<path class="st0" d="M1083.4,606.9h26.7c7,0,12.2,1.5,15.7,4.5s5.2,6.7,5.2,11c0,3.4-1.1,6.8-3.3,10c-2.2,3.2-5.5,5.8-9.8,7.9
			c-4.3,2-9,3-14,3c-3.1,0-7.1-0.6-11.9-1.7l-5.4,18.5c-1.3,4.4-1.9,7.3-1.9,8.7c0,1.1,0.4,1.9,1.3,2.6c0.9,0.7,3,1.1,6.4,1.3
			l-0.5,1.8H1065l0.5-1.8c3.5,0,6-0.6,7.4-1.8s2.9-4.6,4.5-10.1l11.2-38.5c1.3-4.6,2-7.7,2-9.3c0-1.2-0.5-2.1-1.4-2.9
			c-0.9-0.8-3-1.2-6.3-1.4L1083.4,606.9z M1092.7,638.4c3.8,1,6.8,1.4,9.1,1.4c3.6,0,6.9-0.7,9.9-2.2s5.3-3.7,7-6.7s2.5-6.1,2.5-9.3
			c0-3.4-1-6-3.1-8s-5.2-2.9-9.4-2.9c-2.3,0-5,0.3-8.2,0.8L1092.7,638.4z"/>
		<path class="st0" d="M1177.8,629.4l-9.7,33.8l-1.1,4.5c-0.1,0.4-0.2,0.8-0.2,1.1c0,0.5,0.2,1,0.5,1.4c0.3,0.3,0.6,0.4,1,0.4
			s1-0.3,1.7-0.8c1.3-1,3-3,5.2-6l1.7,1.2c-2.3,3.5-4.7,6.1-7.1,7.9c-2.4,1.8-4.7,2.7-6.7,2.7c-1.4,0-2.5-0.4-3.2-1.1
			c-0.7-0.7-1.1-1.8-1.1-3.1c0-1.6,0.4-3.8,1.1-6.4l1-3.7c-4.4,5.7-8.4,9.7-12,11.9c-2.6,1.6-5.2,2.4-7.7,2.4c-2.4,0-4.5-1-6.3-3
			s-2.6-4.8-2.6-8.3c0-5.3,1.6-10.9,4.8-16.7c3.2-5.9,7.2-10.6,12.1-14.1c3.8-2.8,7.4-4.2,10.8-4.2c2,0,3.7,0.5,5.1,1.6
			s2.4,2.8,3.1,5.3l1.8-5.7L1177.8,629.4z M1160,632c-2.1,0-4.4,1-6.8,3c-3.4,2.8-6.4,7-9.1,12.6s-4,10.6-4,15.1
			c0,2.3,0.6,4.1,1.7,5.4c1.1,1.3,2.4,2,3.9,2c3.6,0,7.6-2.7,11.8-8c5.7-7.1,8.5-14.4,8.5-21.9c0-2.8-0.5-4.9-1.6-6.1
			C1163.4,632.6,1161.9,632,1160,632z"/>
		<path class="st0" d="M1186.3,632.2l17.2-2.8l-7.2,24.3c5.8-9.9,11.1-16.9,15.9-20.9c2.7-2.3,4.9-3.4,6.6-3.4c1.1,0,2,0.3,2.6,1
			c0.6,0.6,0.9,1.6,0.9,2.8c0,2.2-0.6,4.3-1.7,6.3c-0.8,1.5-1.9,2.2-3.4,2.2c-0.8,0-1.4-0.2-2-0.7s-0.9-1.3-1-2.3
			c-0.1-0.6-0.2-1-0.4-1.2c-0.3-0.3-0.6-0.4-0.9-0.4c-0.6,0-1.1,0.1-1.6,0.4c-0.9,0.5-2.2,1.8-3.9,3.9c-2.8,3.3-5.8,7.5-9,12.7
			c-1.4,2.2-2.6,4.7-3.6,7.4c-1.4,3.8-2.2,6.1-2.4,6.8l-1.6,6.3h-7.6l9.2-31c1.1-3.6,1.6-6.2,1.6-7.7c0-0.6-0.2-1.1-0.7-1.5
			c-0.7-0.5-1.5-0.8-2.6-0.8c-0.7,0-2,0.1-3.8,0.4L1186.3,632.2z"/>
		<path class="st0" d="M1247.3,617l-3.9,13.6h7.8l-0.8,3.1h-7.8l-8.6,29.4c-0.9,3.2-1.4,5.2-1.4,6.1c0,0.6,0.1,1,0.4,1.3
			s0.6,0.4,0.9,0.4c0.8,0,1.9-0.6,3.3-1.7c0.8-0.7,2.6-2.7,5.3-6.1l1.6,1.2c-3.1,4.5-6,7.6-8.7,9.4c-1.9,1.3-3.7,1.9-5.6,1.9
			c-1.5,0-2.7-0.5-3.6-1.4s-1.4-2.1-1.4-3.5c0-1.8,0.5-4.5,1.6-8.2l8.3-28.9h-7.5l0.5-1.9c3.7-1,6.7-2.5,9.1-4.5s5.1-5.4,8.1-10.3
			h2.4V617z"/>
		<path class="st0" d="M1271.7,629.4l-6.6,22.7c6.2-9.3,11-15.4,14.3-18.3c3.3-2.9,6.5-4.4,9.6-4.4c1.7,0,3,0.5,4.1,1.6
			s1.6,2.5,1.6,4.3c0,2-0.5,4.7-1.4,8l-6.1,21c-0.7,2.4-1,3.9-1,4.4s0.1,0.9,0.4,1.2s0.5,0.5,0.8,0.5c0.4,0,0.9-0.2,1.4-0.6
			c1.8-1.4,3.7-3.5,5.8-6.4l1.5,0.9c-3.1,4.4-6,7.6-8.8,9.5c-1.9,1.3-3.7,1.9-5.2,1.9c-1.2,0-2.2-0.4-2.9-1.1
			c-0.7-0.7-1.1-1.8-1.1-3c0-1.6,0.6-4.3,1.7-8.2l5.8-20.1c0.7-2.5,1.1-4.4,1.1-5.8c0-0.7-0.2-1.2-0.6-1.6c-0.4-0.4-1-0.6-1.6-0.6
			c-0.9,0-2,0.4-3.3,1.2c-2.5,1.5-5,4-7.7,7.4s-5.5,7.8-8.4,13.2c-1.6,2.8-2.9,5.9-3.9,9.3l-2.5,8.2h-7.5l9.1-31.2
			c1.1-3.8,1.6-6,1.6-6.8c0-0.7-0.3-1.4-0.9-1.9s-1.3-0.8-2.2-0.8c-0.4,0-1.1,0.1-2.1,0.2l-1.9,0.3l-0.3-1.8L1271.7,629.4z"/>
		<path class="st0" d="M1312.4,655.7c-0.2,1.7-0.3,3-0.3,4.1c0,3,1,5.5,3.1,7.6s4.6,3.1,7.6,3.1c2.4,0,4.7-0.5,6.9-1.5
			c2.2-1,5.5-3.2,9.9-6.5l1,1.4c-7.9,7.8-15.4,11.7-22.6,11.7c-4.9,0-8.5-1.5-11-4.6s-3.7-6.4-3.7-10.1c0-5,1.5-10,4.6-15.2
			s6.9-9.2,11.5-12.1c4.6-2.9,9.4-4.3,14.3-4.3c3.5,0,6.1,0.7,7.8,2.1c1.7,1.4,2.5,3.1,2.5,5.1c0,2.8-1.1,5.4-3.3,7.9
			c-2.9,3.3-7.2,6-12.8,8C1324.4,653.9,1319.2,655,1312.4,655.7z M1312.8,653.3c4.9-0.6,8.9-1.5,12-2.9c4.1-1.8,7.2-4,9.2-6.6
			c2-2.5,3.1-5,3.1-7.3c0-1.4-0.4-2.5-1.3-3.4s-2.1-1.3-3.8-1.3c-3.4,0-7,1.8-10.8,5.4C1317.4,640.9,1314.6,646.2,1312.8,653.3z"/>
		<path class="st0" d="M1350.9,632.2l17.2-2.8l-7.2,24.3c5.8-9.9,11.1-16.9,15.9-20.9c2.7-2.3,4.9-3.4,6.6-3.4c1.1,0,2,0.3,2.6,1
			c0.6,0.6,0.9,1.6,0.9,2.8c0,2.2-0.6,4.3-1.7,6.3c-0.8,1.5-1.9,2.2-3.4,2.2c-0.8,0-1.4-0.2-2-0.7s-0.9-1.3-1-2.3
			c-0.1-0.6-0.2-1-0.4-1.2c-0.3-0.3-0.6-0.4-0.9-0.4c-0.6,0-1.1,0.1-1.6,0.4c-0.9,0.5-2.2,1.8-3.9,3.9c-2.8,3.3-5.8,7.5-9,12.7
			c-1.4,2.2-2.6,4.7-3.6,7.4c-1.4,3.8-2.2,6.1-2.4,6.8l-1.6,6.3h-7.6l9.2-31c1.1-3.6,1.6-6.2,1.6-7.7c0-0.6-0.2-1.1-0.7-1.5
			c-0.7-0.5-1.5-0.8-2.6-0.8c-0.7,0-2,0.1-3.8,0.4L1350.9,632.2z"/>
	</g>
</g>
</svg>
