<svg id="Layer_1" data-name="Layer 1" xmlns="http://www.w3.org/2000/svg" viewBox="0 0 200 200"><defs><style>.cls-1{fill:#fecb00;}.cls-2{fill:#0f204b;}.cls-3{fill:#fff;}</style></defs><title>MANAGE FARE</title><rect class="cls-1" x="8.23" y="7.61" width="184.34" height="184.34" rx="13.53"/><path class="cls-2" d="M57.19,55.82c-.83,3.92-1.67,7.75-2.5,11.83H92.34a6.09,6.09,0,0,1,1.75.17,2.82,2.82,0,0,1,1.92,3,2.6,2.6,0,0,1-2.75,2.33c-4.25.08-8.58,0-12.83,0H43.53c.41.67.58,1.08.83,1.42,1,1.33,1.91,2.58,2.91,3.91,1.34,1.75,1.25,2.58-.08,4.33-1.66,2.25-3.33,4.5-5.08,6.67A1.6,1.6,0,0,0,42,91.81c1.83,2.42,3.5,4.83,5.24,7.33,1.25,1.75,1.25,2.67-.08,4.33-1.75,2.25-3.41,4.59-5.16,6.83a1.45,1.45,0,0,0,0,2.09c1.75,2.16,3.33,4.41,5,6.58s1.67,2.83,0,5.08c-1.08,1.42-2.16,2.92-3.24,4.42v.41c.5,0,1,.09,1.5.09H157.66c2.16,0,2.33-.25,2.33-2.34V112.47c0-2.17.92-3.16,2.58-3.25s2.75,1.17,2.84,3.25v14.75c0,4.5-2.67,7.16-7.17,7.16H38.61c-1.42,0-2.67-.08-3.33-1.58s-.09-2.5.83-3.67c1.58-2.08,3.17-4.16,4.75-6.16a2,2,0,0,0,.08-2.92c-1.75-2.08-3.25-4.33-4.91-6.5-1.42-1.91-1.42-2.91.08-4.91s3.17-4.25,4.92-6.33a1.8,1.8,0,0,0,0-2.67c-1.67-2.16-3.25-4.41-4.92-6.66-1.5-2.09-1.5-3,0-5s3.17-4.25,4.83-6.33a1.67,1.67,0,0,0,.09-2.5c-1.84-2.17-3.5-4.5-5.25-6.75-.83-1.08-1.25-2.17-.59-3.42s1.75-1.41,3-1.41c3.09,0,6.17-.09,9.33,0,1.17,0,1.59-.42,1.84-1.5C50.19,62.07,51.11,58,52,54c.75-3.33,3-4.75,6.33-4Q81.22,54.87,104,59.74c.5.08,1,.25,1.41.33,1.84.5,2.84,1.75,2.5,3.25a2.81,2.81,0,0,1-3.66,2.08c-2.59-.5-5.17-1.08-7.83-1.58q-19.12-4-38.24-7.92A3,3,0,0,0,57.19,55.82Z"/><path class="cls-2" d="M102.51,108.56H84.26c-2,0-3.16-1.09-3.16-2.92a2.62,2.62,0,0,1,2.16-2.75,10.73,10.73,0,0,1,1.59-.17h35.4c2.42,0,3.92,1.34,3.75,3.17a2.86,2.86,0,0,1-3.16,2.58C114.75,108.56,108.67,108.56,102.51,108.56Z"/><path class="cls-2" d="M97.76,119.55H84.35c-2.17,0-3.25-.91-3.25-2.75S82.18,114,84.26,114h27c2,0,3.33,1.17,3.33,2.83s-1.34,2.84-3.42,2.84c-4.41-.09-8.91-.09-13.41-.09Z"/><path class="cls-2" d="M89.85,88.23H84.26c-1.91,0-3.08-1.08-3.08-2.83a2.84,2.84,0,0,1,3.17-2.92H95.51a2.88,2.88,0,1,1,0,5.75Z"/><path class="cls-2" d="M67.77,91.06c0,1.58.08,3.25,0,4.83a2.8,2.8,0,0,1-2.67,2.92,2.67,2.67,0,0,1-2.75-2.92c-.08-3.16-.08-6.41,0-9.58a2.75,2.75,0,0,1,2.75-3c1.59,0,2.67,1.17,2.75,3,0,1.59,0,3.17-.08,4.75Z"/><path class="cls-2" d="M62.35,111c0-1.58-.08-3.25,0-4.83.09-1.83,1.09-2.83,2.75-2.83a2.64,2.64,0,0,1,2.75,2.83q.14,4.88,0,9.75a2.64,2.64,0,0,1-2.75,2.83,2.69,2.69,0,0,1-2.75-2.83V111Z"/><path class="cls-2" d="M141.41,103.89h2.42c1.16.08,2.25.17,3.41.33a8.78,8.78,0,0,1,2.84.75,2.22,2.22,0,0,1,1.25,1.34,14.22,14.22,0,0,1,.5,2.66c0,.09.08.17.16.25a1,1,0,0,1,.84,1v2.17a1,1,0,0,1-.59.91c-.16.09-.16.17-.16.25v8.75c0,.33-.09.5-.42.58a1.54,1.54,0,0,1-.67.09h-.33v1.33a1.06,1.06,0,0,1-.33.83,1.39,1.39,0,0,1-1.59.17,1.18,1.18,0,0,1-.66-1.17v-1.08h-9.75v1.33a1.47,1.47,0,0,1-.17.59,1.4,1.4,0,0,1-1.58.41,1,1,0,0,1-.83-1.16v-1.17h-1a.76.76,0,0,1-.75-.83,16.72,16.72,0,0,1-.08-2v-6.58c0-.17,0-.17-.17-.25a1,1,0,0,1-.5-.92V110.3a1,1,0,0,1,.75-1c.16,0,.16-.09.16-.25.17-.92.25-1.84.5-2.75a1.55,1.55,0,0,1,1-1.25c.25-.09.5-.25.75-.34a15.61,15.61,0,0,1,3.92-.66A3.94,3.94,0,0,1,141.41,103.89Zm-5.16,4.33v6.92h13.24v-6.92Zm11.49-2.33H138v1.5h9.74Zm-9.58,12.58a1.42,1.42,0,0,0,0,2.83,1.42,1.42,0,1,0,0-2.83Zm9.58,2.75a1.42,1.42,0,1,0-1.41-1.42A1.41,1.41,0,0,0,147.74,121.22Z"/><path class="cls-2" d="M151.66,99.89a2.32,2.32,0,0,1-2-1.16c-.75-1.17-1.5-2.34-2.25-3.59a3.14,3.14,0,0,0-2.75-1.5h-2.83a2.85,2.85,0,0,0-2.58,1.42c-.75,1.17-1.42,2.33-2.17,3.5a2.35,2.35,0,0,1-3.33,1.08c-1.25-.5-2.58-1-3.83-1.58a2.32,2.32,0,0,1-1.5-2.83c.33-1.42.58-2.84.91-4.25a2.68,2.68,0,0,0-.91-2.75c-.75-.67-1.42-1.42-2.09-2.08a2.81,2.81,0,0,0-2.75-.84c-1.33.34-2.66.67-4.08.92a2.35,2.35,0,0,1-3.16-1.58c-.59-1.25-1.09-2.59-1.59-3.84a2.32,2.32,0,0,1,.92-3c1.17-.75,2.42-1.58,3.58-2.33a2.83,2.83,0,0,0,1.42-2.75V69.9a3,3,0,0,0-1.5-2.67c-1.25-.75-2.42-1.49-3.67-2.24a2.32,2.32,0,0,1-1-3c.5-1.42,1.09-2.75,1.67-4.09a2.29,2.29,0,0,1,2.75-1.41c1.42.33,2.83.58,4.25.91a3,3,0,0,0,2.91-.91c.67-.67,1.34-1.42,2-2.08a2.68,2.68,0,0,0,.84-2.67c-.34-1.42-.67-2.75-1-4.17a2.47,2.47,0,0,1,1.58-3.16c1.25-.5,2.42-1,3.67-1.5a2.4,2.4,0,0,1,3.33,1c.75,1.08,1.5,2.25,2.16,3.41a3.19,3.19,0,0,0,2.84,1.5h2.66a3,3,0,0,0,2.75-1.5c.75-1.16,1.42-2.33,2.17-3.49a2.37,2.37,0,0,1,3.16-1.09c1.34.5,2.67,1.09,4,1.58a2.28,2.28,0,0,1,1.42,2.84c-.34,1.41-.59,2.83-.92,4.25a2.81,2.81,0,0,0,.83,2.75l2.17,2.16a3,3,0,0,0,2.58.83c1.42-.33,2.75-.66,4.17-1a2.42,2.42,0,0,1,3.16,1.59c.5,1.25,1.09,2.5,1.59,3.66a2.39,2.39,0,0,1-1,3.25c-1.17.75-2.34,1.5-3.58,2.33a2.79,2.79,0,0,0-1.34,2.67v2.83a2.94,2.94,0,0,0,1.42,2.67c1.16.75,2.41,1.5,3.66,2.25a2.26,2.26,0,0,1,1,3.16c-.5,1.34-1.08,2.67-1.58,4a2.27,2.27,0,0,1-2.75,1.5c-1.41-.33-2.91-.58-4.33-.91a2.69,2.69,0,0,0-2.75.91l-2,2a3,3,0,0,0-.92,2.92c.34,1.33.59,2.58.92,3.91.42,1.67-.08,2.59-1.67,3.25-1.24.5-2.49,1.08-3.66,1.58A4.36,4.36,0,0,0,151.66,99.89Zm-8.58-40.74A12.08,12.08,0,1,0,155,71.4,12.13,12.13,0,0,0,143.08,59.15Z"/><path class="cls-3" d="M148.08,65.24h-3.5a3.08,3.08,0,0,1,1.16,2.16h2.34v1.08h-2.25c-.25,2.17-1.92,3.5-4.58,3.59,1.66,1.66,3.41,3.83,5.16,6h-2c-1.66-2-3.16-3.83-5.16-5.91V70.82h1.16c2.25,0,3.5-.92,3.67-2.42h-4.83V67.32H144c-.34-1.25-1.42-1.83-3.25-1.83h-1.5V64.15h8.83Z"/><path class="cls-2" d="M47.46,168.27v-9.8h1.88l4.17,6.92h-1l4.08-6.92h1.89v9.8H56.38l0-6.54h.42l-3.3,5.49h-1l-3.35-5.49h.47v6.54Z"/><path class="cls-2" d="M59.54,168.27l4.36-9.8h2.24l4.39,9.8H68.15l-3.59-8.65h.91l-3.6,8.65Zm2.2-2.1.58-1.72h5.06l.59,1.72Z"/><path class="cls-2" d="M71.56,168.27v-9.8h1.87l5.78,7.06H78.3v-7.06h2.24v9.8H78.67l-5.78-7.05h.91v7.05Z"/><path class="cls-2" d="M81.58,168.27l4.35-9.8h2.24l4.4,9.8H90.19l-3.6-8.65h.91l-3.6,8.65Zm2.2-2.1.57-1.72h5.07l.59,1.72Z"/><path class="cls-2" d="M98.18,168.44a5.94,5.94,0,0,1-2.14-.37,4.94,4.94,0,0,1-2.81-2.67,5.48,5.48,0,0,1,0-4.06,5,5,0,0,1,1.13-1.61,5.18,5.18,0,0,1,1.71-1.06,6.19,6.19,0,0,1,2.16-.37,6,6,0,0,1,2.34.44,4.66,4.66,0,0,1,1.76,1.26l-1.44,1.34a3.87,3.87,0,0,0-1.18-.85,3.48,3.48,0,0,0-1.39-.27,3.55,3.55,0,0,0-1.28.23,3.07,3.07,0,0,0-1,.65,3.11,3.11,0,0,0-.66,1,3.57,3.57,0,0,0,0,2.52,3.05,3.05,0,0,0,.66,1,3,3,0,0,0,1,.65,3.32,3.32,0,0,0,1.28.24,3.92,3.92,0,0,0,1.31-.22,4,4,0,0,0,1.24-.74l1.29,1.63a6,6,0,0,1-1.87.93A7.28,7.28,0,0,1,98.18,168.44Zm1.89-1.54v-3.68h2.08v4Z"/><path class="cls-2" d="M106.5,166.45h5.33v1.82h-7.58v-9.8h7.4v1.82H106.5Zm-.17-4h4.72v1.77h-4.72Z"/><path class="cls-2" d="M119.88,168.27H117.6v-9.8H125v1.82h-5.13Zm-.18-5.39h4.7v1.82h-4.7Z"/><path class="cls-2" d="M124.85,168.27l4.36-9.8h2.24l4.39,9.8h-2.38l-3.59-8.65h.91l-3.6,8.65Zm2.2-2.1.58-1.72h5.06l.59,1.72Z"/><path class="cls-2" d="M136.87,168.27v-9.8h4.24a5.47,5.47,0,0,1,2.27.43,3.35,3.35,0,0,1,1.47,1.22,3.47,3.47,0,0,1,.51,1.89,3.44,3.44,0,0,1-.51,1.9,3.24,3.24,0,0,1-1.47,1.2,5.64,5.64,0,0,1-2.27.42h-3l1-1v3.72Zm2.28-3.47-1-1.08H141a2.39,2.39,0,0,0,1.57-.45,1.75,1.75,0,0,0,0-2.51,2.45,2.45,0,0,0-1.57-.44h-2.87l1-1.08Zm4,3.47-2.46-3.55h2.43l2.47,3.55Z"/><path class="cls-2" d="M149.41,166.45h5.33v1.82h-7.59v-9.8h7.41v1.82h-5.15Zm-.17-4H154v1.77h-4.72Z"/></svg>