<svg id="Layer_1" data-name="Layer 1" xmlns="http://www.w3.org/2000/svg" viewBox="0 0 200 200"><defs><style>.cls-1{fill:#fecb00;}.cls-2{fill:#0f204b;}.cls-3{fill:#fff;stroke:#d30d0d;stroke-miterlimit:10;stroke-width:4px;}.cls-4{fill:#d30d0d;}</style></defs><title>SEAT BLOCK</title><rect class="cls-1" x="8.23" y="7.61" width="184.34" height="184.34" rx="13.53"/><path class="cls-2" d="M131.06,117h0a30.76,30.76,0,0,1-11.5-3.42c.06.78.11,1.56.16,2.34.14,2.13.32,4.27.49,6.45h11c0-1.54.06-2.93,0-4.32Z"/><path class="cls-2" d="M115.22,75.33A26.5,26.5,0,0,1,127,69.53,14.79,14.79,0,0,0,117.11,62c-1.91-.4-3.88-.45-5.88-.67V56.37c1.77,0,3.4,0,5,0a4.88,4.88,0,0,0,5-4.81,51.9,51.9,0,0,0,0-6.11,9.88,9.88,0,0,0-9.59-9.32q-15.73-.18-31.46,0a10,10,0,0,0-9.71,9.79c-.06,1.81-.06,3.61,0,5.42a4.93,4.93,0,0,0,5.11,5c1.62,0,3.23,0,4.92,0v4.81a50.91,50.91,0,0,0-7,1.09c-6.37,1.91-10.31,7.42-10.67,14.42q-.84,16.49-1.72,33c-.22,4.22-.41,8.45-.62,12.76h11c.25-3.29.51-6.47.73-9.65.7-10.58,1.38-21.15,2.1-31.73a9.92,9.92,0,0,1,9.63-9.28q12-.13,23.94,0A9.77,9.77,0,0,1,115.22,75.33Zm-9.26-14H85.84v-4.9H106Z"/><path class="cls-2" d="M95.86,127.66c12.23,0,24.47.26,36.69-.1,6.49-.2,11,5,8.25,12.15A12.71,12.71,0,0,1,128.43,148q-32.59,0-65.18,0a15.62,15.62,0,0,1-5.11-.9,12.4,12.4,0,0,1-8-11.43,7.45,7.45,0,0,1,7.83-7.93Q76.9,127.64,95.86,127.66Z"/><path class="cls-2" d="M114.18,109.69a23.88,23.88,0,0,1-7-16.51c-.21-4.68,1.68-9.87,4.51-13.89A5.18,5.18,0,0,0,107,76.72q-11.19-.09-22.38,0a5.06,5.06,0,0,0-5.29,5c-.23,2.61-.36,5.23-.54,7.85q-.81,11.58-1.61,23.18c-.22,3.22-.38,6.45-.56,9.72h38.33c0-.44,0-.78,0-1.11Q114.55,115.49,114.18,109.69Z"/><path class="cls-3" d="M131.15,112.65h0A19.5,19.5,0,0,1,111.6,93.1h0a19.5,19.5,0,0,1,19.55-19.55h0A19.5,19.5,0,0,1,150.7,93.1h0A19.61,19.61,0,0,1,131.15,112.65Z"/><path class="cls-4" d="M133.82,91.86l4.44,4.44L139,97a1.84,1.84,0,0,1,0,2.84,2,2,0,0,1-2.84-.17q-2.13-2.15-4.27-4.27a2.77,2.77,0,0,1-.53-.71c-.35.35-.53.35-.71.71l-4.27,4.27c-.88.88-2.13,1.06-2.84.17a2,2,0,0,1,.18-2.84L128,92.74l.71-.71c-1.06-.88-2-2-3-2.84l-2-2a1.9,1.9,0,1,1,2.66-2.67L130.8,89c.18.18.35.18.53.54L134.88,86a10.6,10.6,0,0,1,1.43-1.42,1.92,1.92,0,0,1,2.66,0,2.16,2.16,0,0,1,0,2.84l-4.26,4.27C134.53,91.5,134.17,91.68,133.82,91.86Z"/><path class="cls-2" d="M60,174.16a8.06,8.06,0,0,1-2.26-.31A5.22,5.22,0,0,1,56,173l.77-1.71a5.25,5.25,0,0,0,1.48.74,5.57,5.57,0,0,0,1.75.28,3.32,3.32,0,0,0,1.09-.14,1.26,1.26,0,0,0,.6-.37.76.76,0,0,0,.2-.54.73.73,0,0,0-.31-.62,2.61,2.61,0,0,0-.82-.38c-.34-.09-.71-.19-1.11-.28s-.8-.19-1.21-.32a4.55,4.55,0,0,1-1.12-.5,2.38,2.38,0,0,1-.81-.83,2.5,2.5,0,0,1-.3-1.28,2.82,2.82,0,0,1,.44-1.53A3.15,3.15,0,0,1,58,164.44a5.7,5.7,0,0,1,2.3-.41,7.51,7.51,0,0,1,1.83.22,5.33,5.33,0,0,1,1.57.65L63,166.6a5.5,5.5,0,0,0-1.36-.56,4.92,4.92,0,0,0-1.34-.19,3.18,3.18,0,0,0-1.08.15,1.2,1.2,0,0,0-.59.39.9.9,0,0,0-.19.56.74.74,0,0,0,.3.63,2.31,2.31,0,0,0,.82.38l1.12.26c.41.09.81.2,1.21.33a5.35,5.35,0,0,1,1.11.5,2.26,2.26,0,0,1,1.13,2.08,2.7,2.7,0,0,1-.45,1.51,3.11,3.11,0,0,1-1.38,1.1A5.61,5.61,0,0,1,60,174.16Z"/><path class="cls-2" d="M68,172.18h5.34V174H65.72v-9.8h7.4V166H68Zm-.17-4.05h4.72v1.78H67.8Z"/><path class="cls-2" d="M73.82,174l4.36-9.8h2.24l4.39,9.8H82.43l-3.59-8.66h.91L76.15,174Zm2.2-2.1.58-1.73h5.06l.59,1.73Z"/><path class="cls-2" d="M87.38,174v-8H84.24V164.2h8.54V166H89.64v8Z"/><path class="cls-2" d="M98,174v-9.8h4.79a4.58,4.58,0,0,1,2.78.7,2.19,2.19,0,0,1,.93,1.84,2.37,2.37,0,0,1-.38,1.34,2.5,2.5,0,0,1-1,.88,3.67,3.67,0,0,1-1.51.3l.27-.58a4.16,4.16,0,0,1,1.63.3,2.61,2.61,0,0,1,1.11.9,2.47,2.47,0,0,1,.41,1.44,2.27,2.27,0,0,1-1,2A5,5,0,0,1,103,174Zm2.25-1.71h2.66a2.43,2.43,0,0,0,1.33-.3,1,1,0,0,0,.47-.91,1,1,0,0,0-.47-.92,2.43,2.43,0,0,0-1.33-.29h-2.82v-1.66h2.42a2.37,2.37,0,0,0,1.27-.28,1,1,0,0,0,.44-.88,1,1,0,0,0-.44-.87,2.47,2.47,0,0,0-1.27-.28h-2.26Z"/><path class="cls-2" d="M108.67,174v-9.8H111v8h4.89V174Z"/><path class="cls-2" d="M121.7,174.16a5.87,5.87,0,0,1-2.12-.37,5.17,5.17,0,0,1-1.71-1.07,4.7,4.7,0,0,1-1.13-1.61,5.11,5.11,0,0,1-.4-2,5.18,5.18,0,0,1,.4-2,4.85,4.85,0,0,1,1.13-1.6,5,5,0,0,1,1.7-1.06,5.68,5.68,0,0,1,2.13-.38,5.9,5.9,0,0,1,2.14.37,5.14,5.14,0,0,1,1.7,1.06,4.7,4.7,0,0,1,1.13,1.61,5.14,5.14,0,0,1,.4,2,5.2,5.2,0,0,1-.4,2,4.83,4.83,0,0,1-1.13,1.62,5.11,5.11,0,0,1-1.7,1A5.9,5.9,0,0,1,121.7,174.16Zm0-1.91a3,3,0,0,0,2.19-.89,3.2,3.2,0,0,0,.65-1,3.37,3.37,0,0,0,.23-1.26,3.42,3.42,0,0,0-.23-1.27,3,3,0,0,0-.65-1,2.88,2.88,0,0,0-1-.66,3.32,3.32,0,0,0-2.43,0,2.74,2.74,0,0,0-1,.66,3,3,0,0,0-.64,1,3.23,3.23,0,0,0-.23,1.27,3.19,3.19,0,0,0,.87,2.26,3,3,0,0,0,1,.66A3.22,3.22,0,0,0,121.7,172.25Z"/><path class="cls-2" d="M133.46,174.16a5.8,5.8,0,0,1-2.1-.37,5,5,0,0,1-1.69-1,4.84,4.84,0,0,1-1.11-1.61,5,5,0,0,1-.4-2,5,5,0,0,1,.4-2,4.67,4.67,0,0,1,1.12-1.61,5,5,0,0,1,1.69-1.06,5.81,5.81,0,0,1,2.11-.37,5.91,5.91,0,0,1,2.31.44,4.45,4.45,0,0,1,1.73,1.29l-1.47,1.35a3.3,3.3,0,0,0-1.11-.87,3,3,0,0,0-1.35-.29,3.21,3.21,0,0,0-1.26.23,2.92,2.92,0,0,0-1.64,1.64,3.32,3.32,0,0,0-.24,1.28,3.27,3.27,0,0,0,.24,1.27,2.89,2.89,0,0,0,.65,1,3.07,3.07,0,0,0,1,.66,3.4,3.4,0,0,0,1.26.23,3,3,0,0,0,1.35-.3,3.33,3.33,0,0,0,1.11-.88l1.47,1.34a4.5,4.5,0,0,1-1.73,1.31A5.8,5.8,0,0,1,133.46,174.16Z"/><path class="cls-2" d="M139,174v-9.8h2.25V174Zm2-2.24-.11-2.62,4.69-4.94h2.52l-4.21,4.55-1.29,1.34Zm4.69,2.24-3.48-4.26,1.48-1.62L148.4,174Z"/></svg>