<svg id="Layer_1" data-name="Layer 1" xmlns="http://www.w3.org/2000/svg" viewBox="0 0 200 200"><defs><style>.cls-1{fill:#fecb00;}.cls-2{fill:#0f204b;}.cls-3{fill:#fff;stroke:#36aa05;stroke-miterlimit:10;stroke-width:4px;}.cls-4{fill:#61ba13;}</style></defs><title>SEAT OPEN</title><rect class="cls-1" x="8.23" y="7.61" width="184.34" height="184.34" rx="13.53"/><path class="cls-2" d="M131.77,115.53h0A28.59,28.59,0,0,1,121,112.32c0,.73.09,1.46.14,2.19.14,2,.31,4,.46,6h10.27c0-1.44,0-2.75,0-4Z"/><path class="cls-2" d="M116.94,76.48A24.7,24.7,0,0,1,128,71a13.89,13.89,0,0,0-9.3-7.1c-1.78-.36-3.63-.42-5.5-.62V58.71c1.65,0,3.18,0,4.7,0a4.56,4.56,0,0,0,4.67-4.5,49.78,49.78,0,0,0,0-5.73,9.26,9.26,0,0,0-9-8.73q-14.73-.18-29.47,0A9.36,9.36,0,0,0,75,48.9c0,1.69,0,3.39,0,5.08a4.62,4.62,0,0,0,4.79,4.72c1.51,0,3,0,4.6,0v4.51a46.42,46.42,0,0,0-6.59,1c-6,1.78-9.66,7-10,13.51C67.26,88,66.7,98.34,66.17,108.64c-.21,4-.39,7.91-.58,12H75.9c.23-3.08.47-6.06.67-9,.67-9.9,1.3-19.81,2-29.72a9.31,9.31,0,0,1,9-8.7q11.22-.12,22.43,0A9.2,9.2,0,0,1,116.94,76.48Zm-8.68-13.09H89.41V58.8h18.85Z"/><path class="cls-2" d="M98.8,125.49c11.45,0,22.92.25,34.37-.09,6.08-.19,10.33,4.7,7.72,11.38a11.89,11.89,0,0,1-11.58,7.73q-30.54,0-61.06,0a14.26,14.26,0,0,1-4.79-.85,11.6,11.6,0,0,1-7.52-10.7,7,7,0,0,1,7.33-7.43C75.11,125.48,87,125.5,98.8,125.49Z"/><path class="cls-2" d="M116,108.66a22.37,22.37,0,0,1-6.56-15.47,22,22,0,0,1,4.22-13,4.92,4.92,0,0,0-4.42-2.41q-10.49-.08-21,0a4.75,4.75,0,0,0-5,4.64c-.21,2.45-.33,4.9-.5,7.35-.5,7.24-1,14.48-1.51,21.71-.21,3-.35,6-.53,9.12h35.92c0-.42,0-.74,0-1Z"/><path class="cls-3" d="M131.86,111.43h0a18.26,18.26,0,0,1-18.31-18.31h0A18.26,18.26,0,0,1,131.86,74.8h0a18.26,18.26,0,0,1,18.31,18.32h0A18.36,18.36,0,0,1,131.86,111.43Z"/><path class="cls-4" d="M128.61,96.87l-1.15-1.15c-1.15-1.15-2.3-2.46-3.45-3.61a1.92,1.92,0,0,0-2.79-.33,1.77,1.77,0,0,0,.16,2.79c1.81,2,3.78,3.94,5.59,5.92a2,2,0,0,0,3.12,0c4.1-3.95,8-8,12.15-12,1-1,1.15-2.13.33-2.95s-2-.66-2.95.32l-.33.33C135.67,89.64,132.22,93.09,128.61,96.87Z"/><path class="cls-2" d="M61.87,168.44a8.14,8.14,0,0,1-2.27-.32,5.42,5.42,0,0,1-1.74-.81l.77-1.71a5.31,5.31,0,0,0,1.49.73,5.54,5.54,0,0,0,1.75.29,3.54,3.54,0,0,0,1.08-.14,1.33,1.33,0,0,0,.61-.37.84.84,0,0,0,.2-.54.74.74,0,0,0-.31-.62,2.5,2.5,0,0,0-.82-.38c-.34-.1-.71-.19-1.11-.28s-.81-.2-1.22-.32a5.41,5.41,0,0,1-1.12-.51,2.35,2.35,0,0,1-.81-.82,2.51,2.51,0,0,1-.3-1.29,2.77,2.77,0,0,1,.45-1.53,3,3,0,0,1,1.37-1.1,5.5,5.5,0,0,1,2.3-.42,7.5,7.5,0,0,1,1.82.23,5.39,5.39,0,0,1,1.58.64l-.71,1.71a6.14,6.14,0,0,0-1.36-.57,5.49,5.49,0,0,0-1.35-.19,3.16,3.16,0,0,0-1.07.15,1.24,1.24,0,0,0-.6.4.88.88,0,0,0-.19.56.75.75,0,0,0,.31.63,2.26,2.26,0,0,0,.81.37l1.12.27a10.47,10.47,0,0,1,1.22.33,5.57,5.57,0,0,1,1.11.49,2.44,2.44,0,0,1,.82.81A2.39,2.39,0,0,1,66,165.4a2.61,2.61,0,0,1-.46,1.51A3.15,3.15,0,0,1,64.18,168,5.61,5.61,0,0,1,61.87,168.44Z"/><path class="cls-2" d="M69.82,166.45h5.33v1.82H67.56v-9.8H75v1.82H69.82Zm-.17-4h4.72v1.78H69.65Z"/><path class="cls-2" d="M75.67,168.27l4.35-9.8h2.24l4.4,9.8H84.28l-3.6-8.65h.91L78,168.27Zm2.2-2.1.57-1.72h5.07l.59,1.72Z"/><path class="cls-2" d="M89.22,168.27v-8H86.09v-1.85h8.54v1.85H91.49v8Z"/><path class="cls-2" d="M104.55,168.44a6,6,0,0,1-2.13-.38,5.2,5.2,0,0,1-1.7-1.06,4.75,4.75,0,0,1-1.13-1.61,5,5,0,0,1-.4-2,4.92,4.92,0,0,1,.4-2,4.62,4.62,0,0,1,1.13-1.6,5.06,5.06,0,0,1,1.7-1.07,5.85,5.85,0,0,1,2.13-.38,6.12,6.12,0,0,1,2.14.37,5.14,5.14,0,0,1,1.7,1.06,4.77,4.77,0,0,1,1.12,1.61,5.33,5.33,0,0,1,0,4,4.81,4.81,0,0,1-1.12,1.62,5.14,5.14,0,0,1-1.7,1.06A6.12,6.12,0,0,1,104.55,168.44Zm0-1.92a3.18,3.18,0,0,0,1.21-.23,2.83,2.83,0,0,0,1-.66,3.21,3.21,0,0,0,.65-1,3.62,3.62,0,0,0,0-2.54,3.33,3.33,0,0,0-.65-1,3.13,3.13,0,0,0-1-.66,3.18,3.18,0,0,0-1.21-.23,3.27,3.27,0,0,0-1.22.23,3.09,3.09,0,0,0-1,.66,3,3,0,0,0-.64,1,3.62,3.62,0,0,0,0,2.54,2.86,2.86,0,0,0,.64,1,2.79,2.79,0,0,0,1,.66A3.27,3.27,0,0,0,104.55,166.52Z"/><path class="cls-2" d="M111.62,168.27v-9.8h4.24a5.41,5.41,0,0,1,2.27.43,3.24,3.24,0,0,1,1.47,1.22,3.71,3.71,0,0,1,0,3.79,3.32,3.32,0,0,1-1.47,1.23,5.57,5.57,0,0,1-2.27.43h-3l1-1v3.72Zm2.28-3.47-1-1.08h2.87a2.39,2.39,0,0,0,1.57-.45,1.57,1.57,0,0,0,.53-1.26,1.54,1.54,0,0,0-.53-1.25,2.45,2.45,0,0,0-1.57-.44h-2.87l1-1.08Z"/><path class="cls-2" d="M124,166.45h5.34v1.82h-7.59v-9.8h7.41v1.82H124Zm-.16-4h4.71v1.78h-4.71Z"/><path class="cls-2" d="M131.12,168.27v-9.8H133l5.78,7.06h-.91v-7.06h2.24v9.8h-1.87l-5.79-7.05h.91v7.05Z"/></svg>